<svg width="768" height="206" viewBox="0 0 768 206" fill="none" xmlns="http://www.w3.org/2000/svg">
<mask id="path-1-outside-1_41_31" maskUnits="userSpaceOnUse" x="0" y="25" width="761" height="101" fill="black">
<rect fill="white" y="25" width="761" height="101"/>
<path d="M82.4102 122.344C70.9648 122.344 60.457 120.312 50.8867 116.25C48.8945 118.242 46.4141 119.551 43.4453 120.176C40.5156 120.84 36.5898 121.172 31.668 121.172C26.7852 121.172 22.0391 120.605 17.4297 119.473C12.8203 118.34 9.16797 116.953 6.47266 115.312C3.73828 113.672 2.37109 112.07 2.37109 110.508C2.37109 109.609 2.76172 108.887 3.54297 108.34C4.32422 107.793 5.22266 107.52 6.23828 107.52C9.83203 107.52 12.4883 106.953 14.207 105.82C15.9648 104.648 17.6445 102.5 19.2461 99.375C20.8867 96.25 22.4688 92.6562 23.9922 88.5938C25.5156 84.4922 26.9219 80.6641 28.2109 77.1094C29.5391 73.5547 31.0234 69.9609 32.6641 66.3281C36.2969 58.3984 40.8477 53.125 46.3164 50.5078C48.9336 49.2578 52.3516 48.3008 56.5703 47.6367C60.7891 46.9336 64.0898 46.582 66.4727 46.582C68.8945 46.582 70.457 46.6211 71.1602 46.6992C71.9023 46.7383 72.6445 46.8555 73.3867 47.0508C74.8711 47.4414 75.6133 48.2617 75.6133 49.5117C75.6133 50.3711 75.4375 51.1719 75.0859 51.9141C74.7734 52.6172 73.8945 54.1406 72.4492 56.4844C71.0039 58.8281 69.0898 63.7305 66.707 71.1914C76.2383 70.6055 83.5234 68.6328 88.5625 65.2734C93.6016 61.875 96.1211 57.5391 96.1211 52.2656C96.1211 45.1172 90.0664 41.0547 77.957 40.0781C75.4961 39.8828 71.9023 39.7852 67.1758 39.7852C62.4492 39.7852 57.1953 40.3516 51.4141 41.4844C45.6328 42.5781 41.1016 43.7891 37.8203 45.1172C34.5781 46.4453 31.6484 47.6758 29.0312 48.8086C26.4141 49.9023 24.7344 50.4492 23.9922 50.4492C21.9609 50.4492 20.9453 49.7852 20.9453 48.457C20.9453 47.0898 22.2148 45.4688 24.7539 43.5938C27.293 41.7188 30.7891 39.8633 35.2422 38.0273C39.7344 36.1914 44.6953 34.4922 50.125 32.9297C62.3906 29.4141 75.0664 27.6562 88.1523 27.6562C101.238 27.6562 111.16 29.707 117.918 33.8086C124.715 37.8711 128.113 43.2617 128.113 49.9805C128.113 56.6992 124.734 62.2852 117.977 66.7383C111.258 71.1914 102.02 73.6523 90.2617 74.1211C97.8008 74.1992 104.734 76.0156 111.062 79.5703C114.109 81.25 116.59 83.457 118.504 86.1914C120.418 88.9258 121.375 92.0898 121.375 95.6836C121.375 99.2773 120.613 102.656 119.09 105.82C117.605 108.945 115.613 111.523 113.113 113.555C110.652 115.586 107.703 117.266 104.266 118.594C97.9766 121.094 90.6914 122.344 82.4102 122.344ZM65.0664 76.3477C64.3242 78.8086 62.8594 83.7891 60.6719 91.2891C58.4844 98.75 56.9609 103.75 56.1016 106.289C55.2422 108.789 54.793 110.078 54.7539 110.156C56.0039 110.312 57.9961 110.391 60.7305 110.391C63.5039 110.391 66.5898 110.02 69.9883 109.277C73.4258 108.496 76.4922 107.324 79.1875 105.762C81.9219 104.199 84.0508 102.09 85.5742 99.4336C87.1367 96.7773 87.918 93.5547 87.918 89.7656C87.918 85.9766 85.7109 82.832 81.2969 80.332C76.8828 77.832 71.4727 76.5039 65.0664 76.3477ZM141.59 116.074C134.246 111.66 130.574 104.961 130.574 95.9766C130.574 91.2891 131.531 86.8945 133.445 82.793C135.398 78.6523 138.055 75.0781 141.414 72.0703C144.812 69.0625 148.758 66.4844 153.25 64.3359C162.234 60 172.527 57.832 184.129 57.832C206.941 57.832 219.266 65.0586 221.102 79.5117C223.836 80.4102 226.648 80.8594 229.539 80.8594C232.469 80.8594 234.91 80.6445 236.863 80.2148C238.816 79.7852 240.652 79.1406 242.371 78.2812C244.129 77.4219 245.379 76.9922 246.121 76.9922C247.605 76.9922 248.348 77.7148 248.348 79.1602C248.348 80.6055 247.195 82.1094 244.891 83.6719C240.555 86.6406 234.812 88.125 227.664 88.125C224.969 88.125 222.781 87.9883 221.102 87.7148C219.852 97.5586 214.773 105.742 205.867 112.266C201.609 115.391 196.375 117.852 190.164 119.648C183.992 121.445 177.586 122.344 170.945 122.344C164.344 122.344 158.68 121.816 153.953 120.762C149.227 119.746 145.105 118.184 141.59 116.074ZM162.859 101.133C162.859 108.359 165.496 111.973 170.77 111.973C174.129 111.973 177.254 110.137 180.145 106.465C183.074 102.793 185.34 98.2422 186.941 92.8125C188.582 87.3828 189.402 81.8555 189.402 76.2305C189.402 70.5664 187.43 67.7344 183.484 67.7344C180.047 67.7344 176.707 69.3555 173.465 72.5977C170.262 75.8398 167.684 80.0586 165.73 85.2539C163.816 90.4102 162.859 95.7031 162.859 101.133ZM262.059 115.43C250.652 119.297 243.367 121.23 240.203 121.23C237.078 121.23 234.539 120.586 232.586 119.297C230.672 117.969 229.715 116.328 229.715 114.375C229.715 112.891 232.273 105.039 237.391 90.8203C247.078 63.75 251.922 46.2695 251.922 38.3789L251.863 36.1523C251.863 34.1992 253.758 33.2227 257.547 33.2227H272.84L284.617 33.0469C285.633 33.0469 286.395 33.3594 286.902 33.9844C287.41 34.5703 287.664 35.2344 287.664 35.9766C287.664 39.6094 284.07 50.9766 276.883 70.0781L276.941 70.0195C280.34 66.1523 284.441 63.1641 289.246 61.0547C294.09 58.9062 299.305 57.832 304.891 57.832C321.18 57.832 329.324 65.4492 329.324 80.6836C329.324 86.543 327.879 92.1875 324.988 97.6172C322.098 103.047 318.172 107.773 313.211 111.797C326.023 110.664 336.043 108.125 343.27 104.18C344.324 103.594 345.242 103.301 346.023 103.301C347.547 103.301 348.309 103.926 348.309 105.176C348.309 106.387 347.625 107.5 346.258 108.516C341.141 112.07 333.25 115.215 322.586 117.949C311.922 120.684 300.477 122.07 288.25 122.109C286.297 122.266 284.148 122.344 281.805 122.344C279.461 122.344 276.219 121.719 272.078 120.469C267.977 119.258 264.637 117.578 262.059 115.43ZM288.484 72.7148C281.141 72.7148 275.008 78.3398 270.086 89.5898C267.82 94.7461 266.688 98.9258 266.688 102.129C266.688 105.332 267.215 107.539 268.27 108.75C269.363 109.961 271.473 110.566 274.598 110.566C277.762 110.566 281.16 109.121 284.793 106.23C288.465 103.301 291.414 99.6289 293.641 95.2148C295.867 90.8008 296.98 86.8359 296.98 83.3203C296.98 79.7656 296.199 77.1094 294.637 75.3516C293.074 73.5938 291.023 72.7148 288.484 72.7148ZM383.113 107.461C390.457 107.461 396.59 101.836 401.512 90.5859C403.777 85.4297 404.91 81.25 404.91 78.0469C404.91 74.8438 404.363 72.6367 403.27 71.4258C402.215 70.2148 400.105 69.6094 396.941 69.6094C393.816 69.6094 390.418 71.0742 386.746 74.0039C383.113 76.8945 380.184 80.5469 377.957 84.9609C375.73 89.375 374.617 93.3594 374.617 96.9141C374.617 100.43 375.398 103.066 376.961 104.824C378.523 106.582 380.574 107.461 383.113 107.461ZM413.582 57.832L440.418 59.0625C441.434 59.0625 442.195 59.375 442.703 60C443.211 60.5859 443.465 61.25 443.465 61.9922C443.465 64.8438 442.273 69.3945 439.891 75.6445C437.547 81.8555 435.184 88.0273 432.801 94.1602C430.457 100.254 429.285 104.297 429.285 106.289C429.285 108.242 429.578 109.492 430.164 110.039C430.789 110.586 431.961 110.859 433.68 110.859C435.398 110.859 438.523 110.039 443.055 108.398C447.625 106.719 450.711 105.449 452.312 104.59C453.953 103.73 455.203 103.301 456.062 103.301C457.586 103.301 458.348 103.984 458.348 105.352C458.348 108.242 452.488 112.031 440.77 116.719C436.824 118.32 432.059 119.648 426.473 120.703C420.926 121.797 415.281 122.344 409.539 122.344C399.969 122.344 394.207 119.297 392.254 113.203C386.16 119.297 377.957 122.344 367.645 122.344C360.574 122.344 354.598 120.645 349.715 117.246C344.402 113.535 341.746 107.695 341.746 99.7266C341.746 91.3281 344.227 83.5938 349.188 76.5234C354.617 68.6719 361.883 63.2617 370.984 60.293C376.023 58.6523 381.434 57.832 387.215 57.832C396.082 57.832 402.977 60.0195 407.898 64.3945C407.938 64.1602 407.957 63.7891 407.957 63.2812L407.898 60.7617C407.898 58.8086 409.793 57.832 413.582 57.832ZM565.75 103.301C567.508 103.301 568.387 104.102 568.387 105.703C568.387 106.836 567.566 108.008 565.926 109.219C561.551 112.422 555.008 115.41 546.297 118.184C537.625 120.957 530.047 122.344 523.562 122.344C517.078 122.344 512.293 121.66 509.207 120.293C506.16 118.965 504.051 116.602 502.879 113.203C500.613 115.508 497.352 117.617 493.094 119.531C488.836 121.406 484.324 122.344 479.559 122.344C474.832 122.344 470.965 121.914 467.957 121.055C464.949 120.234 462.215 118.965 459.754 117.246C457.293 115.527 455.34 113.184 453.895 110.215C452.488 107.207 451.785 103.711 451.785 99.7266C451.785 95.7422 452.391 91.7773 453.602 87.832C454.812 83.8867 456.668 80.1172 459.168 76.5234C461.707 72.8906 464.734 69.6875 468.25 66.9141C471.766 64.1406 476.023 61.9336 481.023 60.293C486.062 58.6523 491.473 57.832 497.254 57.832C506.746 57.832 514.637 60.1953 520.926 64.9219C523.113 51.0156 524.207 41.9336 524.207 37.6758L524.148 35.9766C524.148 34.0234 526.043 33.0469 529.832 33.0469L556.082 34.2773C557.02 34.2773 557.762 34.5703 558.309 35.1562C558.855 35.7031 559.129 36.3281 559.129 37.0312C559.129 43.125 555.906 55.625 549.461 74.5312C543.016 93.3984 539.793 103.75 539.793 105.586C539.793 107.422 540.047 108.73 540.555 109.512C541.102 110.293 542.215 110.684 543.895 110.684C545.574 110.684 548.465 109.98 552.566 108.574C556.668 107.168 559.754 105.938 561.824 104.883C563.895 103.828 565.203 103.301 565.75 103.301ZM493.152 107.461C500.496 107.461 506.629 101.836 511.551 90.5859C514.363 85.1953 515.77 80.4297 515.77 76.2891C515.77 74.0234 515.223 72.2852 514.129 71.0742C513.074 69.8633 510.945 69.2578 507.742 69.2578C504.578 69.2578 501.102 70.7422 497.312 73.7109C493.523 76.6797 490.457 80.4102 488.113 84.9023C485.809 89.3555 484.656 93.3594 484.656 96.9141C484.656 100.43 485.438 103.066 487 104.824C488.562 106.582 490.613 107.461 493.152 107.461ZM656.453 103.301C657.82 103.301 658.504 103.945 658.504 105.234C658.504 106.484 657.566 107.656 655.691 108.75C653.855 109.805 651.57 110.957 648.836 112.207C646.102 113.418 642.332 114.863 637.527 116.543C626.473 120.41 613.992 122.344 600.086 122.344C573.68 122.344 560.477 114.219 560.477 97.9688C560.477 90.0391 562.977 83.0078 567.977 76.875C573.016 70.7031 579.754 65.9961 588.191 62.7539C596.629 59.4727 605.828 57.832 615.789 57.832C625.75 57.832 633.035 59.375 637.645 62.4609C642.293 65.5469 644.617 69.7852 644.617 75.1758C644.617 80.7227 642.391 85.2539 637.938 88.7695C633.523 92.2852 627.645 94.9023 620.301 96.6211C612.918 98.3398 604.461 99.5508 594.93 100.254C595.555 106.309 599.891 110.078 607.938 111.562C610.008 111.914 612.195 112.09 614.5 112.09C623.641 112.09 636.824 109.336 654.051 103.828C655.105 103.477 655.906 103.301 656.453 103.301ZM594.988 93.8086C601.785 91.9336 607.156 89.0625 611.102 85.1953C615.047 81.3281 617.02 76.6602 617.02 71.1914C617.02 69.7461 616.551 68.5938 615.613 67.7344C614.676 66.875 613.25 66.4453 611.336 66.4453C609.461 66.4453 607.488 67.2656 605.418 68.9062C603.387 70.5469 601.668 72.6953 600.262 75.3516C597.293 80.8594 595.535 87.0117 594.988 93.8086ZM708.719 68.2031C710.398 71.6016 711.688 74.668 712.586 77.4023C718.914 71.1914 724.402 66.2891 729.051 62.6953C733.738 59.0625 737.508 57.2461 740.359 57.2461C742.391 57.2461 744.188 58.8867 745.75 62.168C747.352 65.4102 748.152 69.1406 748.152 73.3594C748.152 74.1406 747.84 75.0195 747.215 75.9961C746.629 76.9336 745.75 77.5391 744.578 77.8125C743.406 78.0469 740.945 78.1641 737.195 78.1641C733.445 78.1641 729.949 78.6914 726.707 79.7461C723.504 80.7617 719.871 82.8125 715.809 85.8984C719.988 96.9922 723.582 104.395 726.59 108.105C728.113 110.059 730.125 111.035 732.625 111.035C735.125 111.035 738.387 110.371 742.41 109.043C746.434 107.715 749.5 106.426 751.609 105.176C753.719 103.926 755.184 103.301 756.004 103.301C757.645 103.301 758.465 104.023 758.465 105.469C758.465 106.445 757.625 107.676 755.945 109.16C750.281 114.121 744.012 117.676 737.137 119.824C730.262 121.973 722.586 123.047 714.109 123.047C701.688 123.047 693.406 120.43 689.266 115.195C686.922 112.305 684.695 108.379 682.586 103.418C676.414 109.277 670.926 113.906 666.121 117.305C661.316 120.703 657.215 122.402 653.816 122.402C651.316 122.402 649.207 120.801 647.488 117.598C645.809 114.355 644.969 111.016 644.969 107.578C644.969 104.141 645.848 102.344 647.605 102.188C648.621 102.07 650.457 101.973 653.113 101.895C655.809 101.816 658.562 101.68 661.375 101.484C668.211 101.016 674.207 98.8281 679.363 94.9219C678.973 93.75 678.328 91.7969 677.43 89.0625C676.57 86.3281 675.906 84.2969 675.438 82.9688C672.977 76.0156 670.691 71.9922 668.582 70.8984C667.566 70.3516 666.102 70.0781 664.188 70.0781C662.273 70.0781 660.398 70.2539 658.562 70.6055C656.727 70.957 655.594 71.1328 655.164 71.1328C653.68 71.1328 652.938 70.4297 652.938 69.0234C652.938 67.6172 654.5 66.0547 657.625 64.3359C660.75 62.5781 664.988 61.0547 670.34 59.7656C675.73 58.4766 680.359 57.832 684.227 57.832C688.094 57.832 690.945 57.9297 692.781 58.125C694.617 58.2813 696.258 58.5938 697.703 59.0625C699.148 59.4922 700.418 59.9609 701.512 60.4688C702.605 60.9375 703.602 61.6211 704.5 62.5195C705.398 63.3789 706.16 64.2188 706.785 65.0391C707.41 65.8203 708.055 66.875 708.719 68.2031Z"/>
</mask>
<g filter="url(#filter0_i_41_31)">
<path d="M82.4102 122.344C70.9648 122.344 60.457 120.312 50.8867 116.25C48.8945 118.242 46.4141 119.551 43.4453 120.176C40.5156 120.84 36.5898 121.172 31.668 121.172C26.7852 121.172 22.0391 120.605 17.4297 119.473C12.8203 118.34 9.16797 116.953 6.47266 115.312C3.73828 113.672 2.37109 112.07 2.37109 110.508C2.37109 109.609 2.76172 108.887 3.54297 108.34C4.32422 107.793 5.22266 107.52 6.23828 107.52C9.83203 107.52 12.4883 106.953 14.207 105.82C15.9648 104.648 17.6445 102.5 19.2461 99.375C20.8867 96.25 22.4688 92.6562 23.9922 88.5938C25.5156 84.4922 26.9219 80.6641 28.2109 77.1094C29.5391 73.5547 31.0234 69.9609 32.6641 66.3281C36.2969 58.3984 40.8477 53.125 46.3164 50.5078C48.9336 49.2578 52.3516 48.3008 56.5703 47.6367C60.7891 46.9336 64.0898 46.582 66.4727 46.582C68.8945 46.582 70.457 46.6211 71.1602 46.6992C71.9023 46.7383 72.6445 46.8555 73.3867 47.0508C74.8711 47.4414 75.6133 48.2617 75.6133 49.5117C75.6133 50.3711 75.4375 51.1719 75.0859 51.9141C74.7734 52.6172 73.8945 54.1406 72.4492 56.4844C71.0039 58.8281 69.0898 63.7305 66.707 71.1914C76.2383 70.6055 83.5234 68.6328 88.5625 65.2734C93.6016 61.875 96.1211 57.5391 96.1211 52.2656C96.1211 45.1172 90.0664 41.0547 77.957 40.0781C75.4961 39.8828 71.9023 39.7852 67.1758 39.7852C62.4492 39.7852 57.1953 40.3516 51.4141 41.4844C45.6328 42.5781 41.1016 43.7891 37.8203 45.1172C34.5781 46.4453 31.6484 47.6758 29.0312 48.8086C26.4141 49.9023 24.7344 50.4492 23.9922 50.4492C21.9609 50.4492 20.9453 49.7852 20.9453 48.457C20.9453 47.0898 22.2148 45.4688 24.7539 43.5938C27.293 41.7188 30.7891 39.8633 35.2422 38.0273C39.7344 36.1914 44.6953 34.4922 50.125 32.9297C62.3906 29.4141 75.0664 27.6562 88.1523 27.6562C101.238 27.6562 111.16 29.707 117.918 33.8086C124.715 37.8711 128.113 43.2617 128.113 49.9805C128.113 56.6992 124.734 62.2852 117.977 66.7383C111.258 71.1914 102.02 73.6523 90.2617 74.1211C97.8008 74.1992 104.734 76.0156 111.062 79.5703C114.109 81.25 116.59 83.457 118.504 86.1914C120.418 88.9258 121.375 92.0898 121.375 95.6836C121.375 99.2773 120.613 102.656 119.09 105.82C117.605 108.945 115.613 111.523 113.113 113.555C110.652 115.586 107.703 117.266 104.266 118.594C97.9766 121.094 90.6914 122.344 82.4102 122.344ZM65.0664 76.3477C64.3242 78.8086 62.8594 83.7891 60.6719 91.2891C58.4844 98.75 56.9609 103.75 56.1016 106.289C55.2422 108.789 54.793 110.078 54.7539 110.156C56.0039 110.312 57.9961 110.391 60.7305 110.391C63.5039 110.391 66.5898 110.02 69.9883 109.277C73.4258 108.496 76.4922 107.324 79.1875 105.762C81.9219 104.199 84.0508 102.09 85.5742 99.4336C87.1367 96.7773 87.918 93.5547 87.918 89.7656C87.918 85.9766 85.7109 82.832 81.2969 80.332C76.8828 77.832 71.4727 76.5039 65.0664 76.3477ZM141.59 116.074C134.246 111.66 130.574 104.961 130.574 95.9766C130.574 91.2891 131.531 86.8945 133.445 82.793C135.398 78.6523 138.055 75.0781 141.414 72.0703C144.812 69.0625 148.758 66.4844 153.25 64.3359C162.234 60 172.527 57.832 184.129 57.832C206.941 57.832 219.266 65.0586 221.102 79.5117C223.836 80.4102 226.648 80.8594 229.539 80.8594C232.469 80.8594 234.91 80.6445 236.863 80.2148C238.816 79.7852 240.652 79.1406 242.371 78.2812C244.129 77.4219 245.379 76.9922 246.121 76.9922C247.605 76.9922 248.348 77.7148 248.348 79.1602C248.348 80.6055 247.195 82.1094 244.891 83.6719C240.555 86.6406 234.812 88.125 227.664 88.125C224.969 88.125 222.781 87.9883 221.102 87.7148C219.852 97.5586 214.773 105.742 205.867 112.266C201.609 115.391 196.375 117.852 190.164 119.648C183.992 121.445 177.586 122.344 170.945 122.344C164.344 122.344 158.68 121.816 153.953 120.762C149.227 119.746 145.105 118.184 141.59 116.074ZM162.859 101.133C162.859 108.359 165.496 111.973 170.77 111.973C174.129 111.973 177.254 110.137 180.145 106.465C183.074 102.793 185.34 98.2422 186.941 92.8125C188.582 87.3828 189.402 81.8555 189.402 76.2305C189.402 70.5664 187.43 67.7344 183.484 67.7344C180.047 67.7344 176.707 69.3555 173.465 72.5977C170.262 75.8398 167.684 80.0586 165.73 85.2539C163.816 90.4102 162.859 95.7031 162.859 101.133ZM262.059 115.43C250.652 119.297 243.367 121.23 240.203 121.23C237.078 121.23 234.539 120.586 232.586 119.297C230.672 117.969 229.715 116.328 229.715 114.375C229.715 112.891 232.273 105.039 237.391 90.8203C247.078 63.75 251.922 46.2695 251.922 38.3789L251.863 36.1523C251.863 34.1992 253.758 33.2227 257.547 33.2227H272.84L284.617 33.0469C285.633 33.0469 286.395 33.3594 286.902 33.9844C287.41 34.5703 287.664 35.2344 287.664 35.9766C287.664 39.6094 284.07 50.9766 276.883 70.0781L276.941 70.0195C280.34 66.1523 284.441 63.1641 289.246 61.0547C294.09 58.9062 299.305 57.832 304.891 57.832C321.18 57.832 329.324 65.4492 329.324 80.6836C329.324 86.543 327.879 92.1875 324.988 97.6172C322.098 103.047 318.172 107.773 313.211 111.797C326.023 110.664 336.043 108.125 343.27 104.18C344.324 103.594 345.242 103.301 346.023 103.301C347.547 103.301 348.309 103.926 348.309 105.176C348.309 106.387 347.625 107.5 346.258 108.516C341.141 112.07 333.25 115.215 322.586 117.949C311.922 120.684 300.477 122.07 288.25 122.109C286.297 122.266 284.148 122.344 281.805 122.344C279.461 122.344 276.219 121.719 272.078 120.469C267.977 119.258 264.637 117.578 262.059 115.43ZM288.484 72.7148C281.141 72.7148 275.008 78.3398 270.086 89.5898C267.82 94.7461 266.688 98.9258 266.688 102.129C266.688 105.332 267.215 107.539 268.27 108.75C269.363 109.961 271.473 110.566 274.598 110.566C277.762 110.566 281.16 109.121 284.793 106.23C288.465 103.301 291.414 99.6289 293.641 95.2148C295.867 90.8008 296.98 86.8359 296.98 83.3203C296.98 79.7656 296.199 77.1094 294.637 75.3516C293.074 73.5938 291.023 72.7148 288.484 72.7148ZM383.113 107.461C390.457 107.461 396.59 101.836 401.512 90.5859C403.777 85.4297 404.91 81.25 404.91 78.0469C404.91 74.8438 404.363 72.6367 403.27 71.4258C402.215 70.2148 400.105 69.6094 396.941 69.6094C393.816 69.6094 390.418 71.0742 386.746 74.0039C383.113 76.8945 380.184 80.5469 377.957 84.9609C375.73 89.375 374.617 93.3594 374.617 96.9141C374.617 100.43 375.398 103.066 376.961 104.824C378.523 106.582 380.574 107.461 383.113 107.461ZM413.582 57.832L440.418 59.0625C441.434 59.0625 442.195 59.375 442.703 60C443.211 60.5859 443.465 61.25 443.465 61.9922C443.465 64.8438 442.273 69.3945 439.891 75.6445C437.547 81.8555 435.184 88.0273 432.801 94.1602C430.457 100.254 429.285 104.297 429.285 106.289C429.285 108.242 429.578 109.492 430.164 110.039C430.789 110.586 431.961 110.859 433.68 110.859C435.398 110.859 438.523 110.039 443.055 108.398C447.625 106.719 450.711 105.449 452.312 104.59C453.953 103.73 455.203 103.301 456.062 103.301C457.586 103.301 458.348 103.984 458.348 105.352C458.348 108.242 452.488 112.031 440.77 116.719C436.824 118.32 432.059 119.648 426.473 120.703C420.926 121.797 415.281 122.344 409.539 122.344C399.969 122.344 394.207 119.297 392.254 113.203C386.16 119.297 377.957 122.344 367.645 122.344C360.574 122.344 354.598 120.645 349.715 117.246C344.402 113.535 341.746 107.695 341.746 99.7266C341.746 91.3281 344.227 83.5938 349.188 76.5234C354.617 68.6719 361.883 63.2617 370.984 60.293C376.023 58.6523 381.434 57.832 387.215 57.832C396.082 57.832 402.977 60.0195 407.898 64.3945C407.938 64.1602 407.957 63.7891 407.957 63.2812L407.898 60.7617C407.898 58.8086 409.793 57.832 413.582 57.832ZM565.75 103.301C567.508 103.301 568.387 104.102 568.387 105.703C568.387 106.836 567.566 108.008 565.926 109.219C561.551 112.422 555.008 115.41 546.297 118.184C537.625 120.957 530.047 122.344 523.562 122.344C517.078 122.344 512.293 121.66 509.207 120.293C506.16 118.965 504.051 116.602 502.879 113.203C500.613 115.508 497.352 117.617 493.094 119.531C488.836 121.406 484.324 122.344 479.559 122.344C474.832 122.344 470.965 121.914 467.957 121.055C464.949 120.234 462.215 118.965 459.754 117.246C457.293 115.527 455.34 113.184 453.895 110.215C452.488 107.207 451.785 103.711 451.785 99.7266C451.785 95.7422 452.391 91.7773 453.602 87.832C454.812 83.8867 456.668 80.1172 459.168 76.5234C461.707 72.8906 464.734 69.6875 468.25 66.9141C471.766 64.1406 476.023 61.9336 481.023 60.293C486.062 58.6523 491.473 57.832 497.254 57.832C506.746 57.832 514.637 60.1953 520.926 64.9219C523.113 51.0156 524.207 41.9336 524.207 37.6758L524.148 35.9766C524.148 34.0234 526.043 33.0469 529.832 33.0469L556.082 34.2773C557.02 34.2773 557.762 34.5703 558.309 35.1562C558.855 35.7031 559.129 36.3281 559.129 37.0312C559.129 43.125 555.906 55.625 549.461 74.5312C543.016 93.3984 539.793 103.75 539.793 105.586C539.793 107.422 540.047 108.73 540.555 109.512C541.102 110.293 542.215 110.684 543.895 110.684C545.574 110.684 548.465 109.98 552.566 108.574C556.668 107.168 559.754 105.938 561.824 104.883C563.895 103.828 565.203 103.301 565.75 103.301ZM493.152 107.461C500.496 107.461 506.629 101.836 511.551 90.5859C514.363 85.1953 515.77 80.4297 515.77 76.2891C515.77 74.0234 515.223 72.2852 514.129 71.0742C513.074 69.8633 510.945 69.2578 507.742 69.2578C504.578 69.2578 501.102 70.7422 497.312 73.7109C493.523 76.6797 490.457 80.4102 488.113 84.9023C485.809 89.3555 484.656 93.3594 484.656 96.9141C484.656 100.43 485.438 103.066 487 104.824C488.562 106.582 490.613 107.461 493.152 107.461ZM656.453 103.301C657.82 103.301 658.504 103.945 658.504 105.234C658.504 106.484 657.566 107.656 655.691 108.75C653.855 109.805 651.57 110.957 648.836 112.207C646.102 113.418 642.332 114.863 637.527 116.543C626.473 120.41 613.992 122.344 600.086 122.344C573.68 122.344 560.477 114.219 560.477 97.9688C560.477 90.0391 562.977 83.0078 567.977 76.875C573.016 70.7031 579.754 65.9961 588.191 62.7539C596.629 59.4727 605.828 57.832 615.789 57.832C625.75 57.832 633.035 59.375 637.645 62.4609C642.293 65.5469 644.617 69.7852 644.617 75.1758C644.617 80.7227 642.391 85.2539 637.938 88.7695C633.523 92.2852 627.645 94.9023 620.301 96.6211C612.918 98.3398 604.461 99.5508 594.93 100.254C595.555 106.309 599.891 110.078 607.938 111.562C610.008 111.914 612.195 112.09 614.5 112.09C623.641 112.09 636.824 109.336 654.051 103.828C655.105 103.477 655.906 103.301 656.453 103.301ZM594.988 93.8086C601.785 91.9336 607.156 89.0625 611.102 85.1953C615.047 81.3281 617.02 76.6602 617.02 71.1914C617.02 69.7461 616.551 68.5938 615.613 67.7344C614.676 66.875 613.25 66.4453 611.336 66.4453C609.461 66.4453 607.488 67.2656 605.418 68.9062C603.387 70.5469 601.668 72.6953 600.262 75.3516C597.293 80.8594 595.535 87.0117 594.988 93.8086ZM708.719 68.2031C710.398 71.6016 711.688 74.668 712.586 77.4023C718.914 71.1914 724.402 66.2891 729.051 62.6953C733.738 59.0625 737.508 57.2461 740.359 57.2461C742.391 57.2461 744.188 58.8867 745.75 62.168C747.352 65.4102 748.152 69.1406 748.152 73.3594C748.152 74.1406 747.84 75.0195 747.215 75.9961C746.629 76.9336 745.75 77.5391 744.578 77.8125C743.406 78.0469 740.945 78.1641 737.195 78.1641C733.445 78.1641 729.949 78.6914 726.707 79.7461C723.504 80.7617 719.871 82.8125 715.809 85.8984C719.988 96.9922 723.582 104.395 726.59 108.105C728.113 110.059 730.125 111.035 732.625 111.035C735.125 111.035 738.387 110.371 742.41 109.043C746.434 107.715 749.5 106.426 751.609 105.176C753.719 103.926 755.184 103.301 756.004 103.301C757.645 103.301 758.465 104.023 758.465 105.469C758.465 106.445 757.625 107.676 755.945 109.16C750.281 114.121 744.012 117.676 737.137 119.824C730.262 121.973 722.586 123.047 714.109 123.047C701.688 123.047 693.406 120.43 689.266 115.195C686.922 112.305 684.695 108.379 682.586 103.418C676.414 109.277 670.926 113.906 666.121 117.305C661.316 120.703 657.215 122.402 653.816 122.402C651.316 122.402 649.207 120.801 647.488 117.598C645.809 114.355 644.969 111.016 644.969 107.578C644.969 104.141 645.848 102.344 647.605 102.188C648.621 102.07 650.457 101.973 653.113 101.895C655.809 101.816 658.562 101.68 661.375 101.484C668.211 101.016 674.207 98.8281 679.363 94.9219C678.973 93.75 678.328 91.7969 677.43 89.0625C676.57 86.3281 675.906 84.2969 675.438 82.9688C672.977 76.0156 670.691 71.9922 668.582 70.8984C667.566 70.3516 666.102 70.0781 664.188 70.0781C662.273 70.0781 660.398 70.2539 658.562 70.6055C656.727 70.957 655.594 71.1328 655.164 71.1328C653.68 71.1328 652.938 70.4297 652.938 69.0234C652.938 67.6172 654.5 66.0547 657.625 64.3359C660.75 62.5781 664.988 61.0547 670.34 59.7656C675.73 58.4766 680.359 57.832 684.227 57.832C688.094 57.832 690.945 57.9297 692.781 58.125C694.617 58.2813 696.258 58.5938 697.703 59.0625C699.148 59.4922 700.418 59.9609 701.512 60.4688C702.605 60.9375 703.602 61.6211 704.5 62.5195C705.398 63.3789 706.16 64.2188 706.785 65.0391C707.41 65.8203 708.055 66.875 708.719 68.2031Z" fill="#5B4E3A"/>
</g>
<path d="M50.8867 116.25L51.6682 114.409L50.4264 113.882L49.4725 114.836L50.8867 116.25ZM43.4453 120.176L43.0333 118.219L43.0182 118.222L43.0032 118.225L43.4453 120.176ZM6.47266 115.312L7.51257 113.604L7.50165 113.598L6.47266 115.312ZM14.207 105.82L15.3077 107.49L15.3164 107.484L14.207 105.82ZM19.2461 99.375L17.4753 98.4453L17.4707 98.4541L17.4662 98.4628L19.2461 99.375ZM23.9922 88.5938L25.8649 89.296L25.867 89.2901L23.9922 88.5938ZM28.2109 77.1094L26.3374 76.4094L26.334 76.4185L26.3307 76.4275L28.2109 77.1094ZM32.6641 66.3281L30.8458 65.4951L30.8413 65.505L32.6641 66.3281ZM46.3164 50.5078L45.4544 48.7031L45.453 48.7038L46.3164 50.5078ZM56.5703 47.6367L56.8813 49.6124L56.8902 49.611L56.8991 49.6095L56.5703 47.6367ZM71.1602 46.6992L70.9393 48.687L70.997 48.6934L71.055 48.6965L71.1602 46.6992ZM75.0859 51.9141L73.2785 51.0579L73.2681 51.0797L73.2583 51.1018L75.0859 51.9141ZM66.707 71.1914L64.8018 70.5829L63.9127 73.367L66.8298 73.1876L66.707 71.1914ZM88.5625 65.2734L89.6719 66.9376L89.6808 66.9316L88.5625 65.2734ZM77.957 40.0781L78.1178 38.0846L78.1153 38.0844L77.957 40.0781ZM51.4141 41.4844L51.7859 43.4496L51.7986 43.4471L51.4141 41.4844ZM37.8203 45.1172L37.0699 43.2633L37.0622 43.2664L37.8203 45.1172ZM29.0312 48.8086L29.8024 50.6539L29.8141 50.6491L29.8257 50.644L29.0312 48.8086ZM35.2422 38.0273L34.4855 36.176L34.4799 36.1783L35.2422 38.0273ZM50.125 32.9297L49.5739 31.0071L49.5719 31.0077L50.125 32.9297ZM117.918 33.8086L116.88 35.5184L116.892 35.5253L117.918 33.8086ZM117.977 66.7383L116.876 65.0683L116.872 65.0712L117.977 66.7383ZM90.2617 74.1211L90.182 72.1227L90.241 76.121L90.2617 74.1211ZM111.062 79.5703L110.083 81.314L110.09 81.3179L110.097 81.3218L111.062 79.5703ZM118.504 86.1914L116.865 87.3383L118.504 86.1914ZM119.09 105.82L117.288 104.953L117.283 104.962L119.09 105.82ZM113.113 113.555L111.852 112.002L111.846 112.007L111.84 112.012L113.113 113.555ZM104.266 118.594L103.545 116.728L103.536 116.732L103.527 116.735L104.266 118.594ZM65.0664 76.3477L65.1152 74.3483L63.5916 74.3111L63.1516 75.7702L65.0664 76.3477ZM60.6719 91.2891L62.5911 91.8518L62.5919 91.8491L60.6719 91.2891ZM56.1016 106.289L57.993 106.939L57.996 106.93L56.1016 106.289ZM54.7539 110.156L52.9651 109.262L51.7009 111.79L54.5058 112.141L54.7539 110.156ZM69.9883 109.277L70.415 111.231L70.4233 111.229L70.4315 111.228L69.9883 109.277ZM79.1875 105.762L78.1952 104.025L78.1844 104.031L79.1875 105.762ZM85.5742 99.4336L83.8504 98.4196L83.8448 98.429L83.8393 98.4386L85.5742 99.4336ZM82.4102 122.344V120.344C71.2062 120.344 60.9675 118.356 51.6682 114.409L50.8867 116.25L50.1052 118.091C59.9466 122.269 70.7235 124.344 82.4102 124.344V122.344ZM50.8867 116.25L49.4725 114.836C47.7759 116.532 45.6529 117.667 43.0333 118.219L43.4453 120.176L43.8573 122.133C47.1752 121.434 50.0132 119.952 52.3009 117.664L50.8867 116.25ZM43.4453 120.176L43.0032 118.225C40.2809 118.842 36.5225 119.172 31.668 119.172V121.172V123.172C36.6572 123.172 40.7504 122.837 43.8874 122.126L43.4453 120.176ZM31.668 121.172V119.172C26.9414 119.172 22.3557 118.624 17.907 117.53L17.4297 119.473L16.9524 121.415C21.7224 122.587 26.6289 123.172 31.668 123.172V121.172ZM17.4297 119.473L17.907 117.53C13.4065 116.424 9.96909 115.099 7.51255 113.604L6.47266 115.312L5.43276 117.021C8.36685 118.807 12.2341 120.255 16.9524 121.415L17.4297 119.473ZM6.47266 115.312L7.50165 113.598C6.23468 112.837 5.40818 112.157 4.91761 111.582C4.43501 111.017 4.37109 110.669 4.37109 110.508H2.37109H0.371094C0.371094 111.909 0.990768 113.143 1.87536 114.179C2.75198 115.206 3.97626 116.147 5.44366 117.027L6.47266 115.312ZM2.37109 110.508H4.37109C4.37109 110.308 4.40451 110.178 4.68989 109.978L3.54297 108.34L2.39604 106.701C1.11893 107.595 0.371094 108.911 0.371094 110.508H2.37109ZM3.54297 108.34L4.68989 109.978C5.11261 109.682 5.60482 109.52 6.23828 109.52V107.52V105.52C4.84049 105.52 3.53583 105.904 2.39604 106.701L3.54297 108.34ZM6.23828 107.52V109.52C9.96661 109.52 13.0991 108.946 15.3077 107.49L14.207 105.82L13.1064 104.15C11.8775 104.96 9.69745 105.52 6.23828 105.52V107.52ZM14.207 105.82L15.3164 107.484C17.4879 106.037 19.36 103.538 21.026 100.287L19.2461 99.375L17.4662 98.4628C15.9291 101.462 14.4418 103.26 13.0976 104.156L14.207 105.82ZM19.2461 99.375L21.0169 100.305C22.7037 97.0916 24.3185 93.4195 25.8648 89.296L23.9922 88.5938L22.1195 87.8915C20.619 91.893 19.0697 95.4084 17.4753 98.4453L19.2461 99.375ZM23.9922 88.5938L25.867 89.2901C27.392 85.1844 28.8001 81.3514 30.0911 77.7912L28.2109 77.1094L26.3307 76.4275C25.0437 79.9767 23.6392 83.7999 22.1173 87.8974L23.9922 88.5938ZM28.2109 77.1094L30.0844 77.8094C31.3963 74.2983 32.8636 70.7456 34.4868 67.1513L32.6641 66.3281L30.8413 65.505C29.1833 69.1762 27.6819 72.8111 26.3374 76.4094L28.2109 77.1094ZM32.6641 66.3281L34.4823 67.1611C38.0039 59.4742 42.2845 54.6546 47.1798 52.3119L46.3164 50.5078L45.453 48.7038C39.4108 51.5954 34.5898 57.3227 30.8458 65.4951L32.6641 66.3281ZM46.3164 50.5078L47.1784 52.3125C49.5599 51.1751 52.7723 50.2592 56.8813 49.6124L56.5703 47.6367L56.2593 45.661C51.9308 46.3424 48.3073 47.3405 45.4544 48.7031L46.3164 50.5078ZM56.5703 47.6367L56.8991 49.6095C61.0801 48.9127 64.254 48.582 66.4727 48.582V46.582V44.582C63.9257 44.582 60.498 44.9545 56.2415 45.6639L56.5703 47.6367ZM66.4727 46.582V48.582C68.9239 48.582 70.368 48.6235 70.9393 48.687L71.1602 46.6992L71.381 44.7115C70.5461 44.6187 68.8651 44.582 66.4727 44.582V46.582ZM71.1602 46.6992L71.055 48.6965C71.6564 48.7281 72.2634 48.8233 72.8777 48.9849L73.3867 47.0508L73.8957 45.1166C73.0257 44.8877 72.1483 44.7485 71.2653 44.702L71.1602 46.6992ZM73.3867 47.0508L72.8777 48.9849C73.3848 49.1184 73.5455 49.2698 73.5736 49.3008C73.5847 49.3131 73.5875 49.3187 73.5914 49.3297C73.5968 49.3445 73.6133 49.3982 73.6133 49.5117H75.6133H77.6133C77.6133 48.46 77.2872 47.4433 76.5397 46.6172C75.8256 45.8279 74.873 45.3738 73.8957 45.1166L73.3867 47.0508ZM75.6133 49.5117H73.6133C73.6133 50.0891 73.4974 50.5958 73.2785 51.0579L75.0859 51.9141L76.8934 52.7702C77.3776 51.748 77.6133 50.6531 77.6133 49.5117H75.6133ZM75.0859 51.9141L73.2583 51.1018C73.0117 51.6566 72.2132 53.0567 70.7469 55.4346L72.4492 56.4844L74.1516 57.5342C75.5758 55.2245 76.5351 53.5778 76.9136 52.7263L75.0859 51.9141ZM72.4492 56.4844L70.7469 55.4346C69.1535 58.0185 67.1747 63.1531 64.8018 70.5829L66.707 71.1914L68.6122 71.7999C71.005 64.3079 72.8544 59.6377 74.1516 57.5342L72.4492 56.4844ZM66.707 71.1914L66.8298 73.1876C76.5289 72.5914 84.2161 70.5747 89.6719 66.9375L88.5625 65.2734L87.4531 63.6093C82.8308 66.6909 75.9477 68.6196 66.5843 69.1952L66.707 71.1914ZM88.5625 65.2734L89.6808 66.9316C95.1735 63.2272 98.1211 58.3137 98.1211 52.2656H96.1211H94.1211C94.1211 56.7644 92.0297 60.5228 87.4442 63.6153L88.5625 65.2734ZM96.1211 52.2656H98.1211C98.1211 48.0089 96.262 44.5904 92.6944 42.1966C89.2526 39.8873 84.3125 38.5842 78.1178 38.0846L77.957 40.0781L77.7963 42.0717C83.7109 42.5486 87.8529 43.7651 90.4657 45.5182C92.9528 47.187 94.1211 49.3739 94.1211 52.2656H96.1211ZM77.957 40.0781L78.1153 38.0844C75.5738 37.8827 71.9168 37.7852 67.1758 37.7852V39.7852V41.7852C71.8879 41.7852 75.4184 41.8829 77.7988 42.0719L77.957 40.0781ZM67.1758 39.7852V37.7852C62.2932 37.7852 56.9079 38.3698 51.0295 39.5217L51.4141 41.4844L51.7986 43.4471C57.4827 42.3333 62.6053 41.7852 67.1758 41.7852V39.7852ZM51.4141 41.4844L51.0423 39.5192C45.2044 40.6237 40.527 41.864 37.0699 43.2633L37.8203 45.1172L38.5707 46.9711C41.6761 45.7141 46.0612 44.5326 51.7858 43.4495L51.4141 41.4844ZM37.8203 45.1172L37.0622 43.2664C33.8105 44.5985 30.8684 45.8341 28.2368 46.9731L29.0312 48.8086L29.8257 50.644C32.4285 49.5175 35.3458 48.2921 38.5784 46.9679L37.8203 45.1172ZM29.0312 48.8086L28.2601 46.9633C26.9754 47.5001 25.9567 47.8875 25.1894 48.1373C24.8059 48.2622 24.5073 48.3454 24.2841 48.3958C24.0433 48.4502 23.9637 48.4492 23.9922 48.4492V50.4492V52.4492C24.7125 52.4492 25.5878 52.2143 26.4278 51.9408C27.3402 51.6437 28.4699 51.2108 29.8024 50.6539L29.0312 48.8086ZM23.9922 50.4492V48.4492C23.5871 48.4492 23.2914 48.4155 23.0851 48.3706C22.984 48.3486 22.9129 48.3256 22.8659 48.3072C22.8193 48.2889 22.8008 48.2768 22.8015 48.2772C22.8139 48.2853 22.8727 48.3323 22.9176 48.4202C22.9586 48.5008 22.9453 48.5323 22.9453 48.457H20.9453H18.9453C18.9453 49.7205 19.4792 50.8841 20.6125 51.6251C21.5982 52.2696 22.8223 52.4492 23.9922 52.4492V50.4492ZM20.9453 48.457H22.9453C22.9453 48.3967 22.9799 48.0774 23.4721 47.4489C23.9531 46.8347 24.7492 46.0834 25.942 45.2026L24.7539 43.5938L23.5658 41.9849C22.2195 42.9791 21.1114 43.9758 20.3229 44.9827C19.5455 45.9753 18.9453 47.1501 18.9453 48.457H20.9453ZM24.7539 43.5938L25.942 45.2026C28.2998 43.4614 31.6323 41.6789 36.0045 39.8764L35.2422 38.0273L34.4799 36.1783C29.9458 38.0476 26.2861 39.9761 23.5658 41.9849L24.7539 43.5938ZM35.2422 38.0273L35.9988 39.8787C40.4147 38.0739 45.3066 36.3975 50.6781 34.8517L50.125 32.9297L49.5719 31.0077C44.0841 32.5869 39.054 34.3089 34.4855 36.176L35.2422 38.0273ZM50.125 32.9297L50.6761 34.8523C62.7579 31.3893 75.248 29.6562 88.1523 29.6562V27.6562V25.6562C74.8848 25.6562 62.0233 27.4388 49.5739 31.0071L50.125 32.9297ZM88.1523 27.6562V29.6562C101.087 29.6562 110.578 31.6934 116.88 35.5183L117.918 33.8086L118.956 32.0989C111.742 27.7207 101.39 25.6562 88.1523 25.6562V27.6562ZM117.918 33.8086L116.892 35.5253C123.212 39.3028 126.113 44.102 126.113 49.9805H128.113H130.113C130.113 42.4214 126.218 36.4394 118.944 32.0919L117.918 33.8086ZM128.113 49.9805H126.113C126.113 55.8825 123.204 60.8981 116.876 65.0683L117.977 66.7383L119.077 68.4083C126.264 63.6722 130.113 57.5159 130.113 49.9805H128.113ZM117.977 66.7383L116.872 65.0712C110.567 69.2498 101.732 71.6622 90.182 72.1227L90.2617 74.1211L90.3414 76.1195C102.307 75.6425 111.948 73.1331 119.081 68.4054L117.977 66.7383ZM90.2617 74.1211L90.241 76.121C97.4575 76.1958 104.059 77.9304 110.083 81.314L111.062 79.5703L112.042 77.8266C105.409 74.1008 98.144 72.2027 90.2824 72.1212L90.2617 74.1211ZM111.062 79.5703L110.097 81.3218C112.888 82.8604 115.134 84.8649 116.865 87.3383L118.504 86.1914L120.142 85.0445C118.046 82.0491 115.331 79.6396 112.028 77.8188L111.062 79.5703ZM118.504 86.1914L116.865 87.3383C118.526 89.7104 119.375 92.467 119.375 95.6836H121.375H123.375C123.375 91.7127 122.31 88.1412 120.142 85.0445L118.504 86.1914ZM121.375 95.6836H119.375C119.375 98.9842 118.678 102.066 117.288 104.953L119.09 105.82L120.892 106.688C122.549 103.247 123.375 99.5705 123.375 95.6836H121.375ZM119.09 105.82L117.283 104.962C115.917 107.838 114.104 110.173 111.852 112.002L113.113 113.555L114.374 115.107C117.123 112.874 119.294 110.052 120.896 106.678L119.09 105.82ZM113.113 113.555L111.84 112.012C109.568 113.888 106.812 115.466 103.545 116.728L104.266 118.594L104.986 120.459C108.594 119.066 111.737 117.284 114.386 115.097L113.113 113.555ZM104.266 118.594L103.527 116.735C97.519 119.123 90.4933 120.344 82.4102 120.344V122.344V124.344C90.8895 124.344 98.4341 123.064 105.004 120.452L104.266 118.594ZM65.0664 76.3477L63.1516 75.7702C62.4063 78.2413 60.9389 83.2306 58.7519 90.7291L60.6719 91.2891L62.5919 91.8491C64.7798 84.3475 66.2421 79.3759 66.9812 76.9251L65.0664 76.3477ZM60.6719 91.2891L58.7527 90.7264C56.5635 98.1929 55.0512 103.154 54.2071 105.648L56.1016 106.289L57.996 106.93C58.8707 104.346 60.4052 99.3071 62.5911 91.8518L60.6719 91.2891ZM56.1016 106.289L54.2102 105.639C53.7807 106.888 53.4547 107.832 53.2315 108.473C53.1197 108.794 53.035 109.034 52.9766 109.198C52.9471 109.28 52.9264 109.338 52.9132 109.373C52.8776 109.469 52.9097 109.373 52.9651 109.262L54.7539 110.156L56.5428 111.051C56.5909 110.954 56.6254 110.864 56.6271 110.86C56.6393 110.829 56.6516 110.796 56.6624 110.767C56.6846 110.708 56.712 110.632 56.7436 110.543C56.8072 110.365 56.8959 110.113 57.0087 109.789C57.2348 109.14 57.563 108.19 57.9929 106.939L56.1016 106.289ZM54.7539 110.156L54.5058 112.141C55.8878 112.314 57.9859 112.391 60.7305 112.391V110.391V108.391C58.0063 108.391 56.12 108.311 55.002 108.172L54.7539 110.156ZM60.7305 110.391V112.391C63.6782 112.391 66.9101 111.997 70.415 111.231L69.9883 109.277L69.5616 107.323C66.2696 108.042 63.3296 108.391 60.7305 108.391V110.391ZM69.9883 109.277L70.4315 111.228C74.0402 110.407 77.2996 109.168 80.1906 107.492L79.1875 105.762L78.1844 104.031C75.6848 105.481 72.8114 106.585 69.545 107.327L69.9883 109.277ZM79.1875 105.762L80.1798 107.498C83.2141 105.764 85.6033 103.403 87.3091 100.429L85.5742 99.4336L83.8393 98.4386C82.4982 100.777 80.6297 102.634 78.1952 104.025L79.1875 105.762ZM85.5742 99.4336L87.2981 100.448C89.0786 97.4207 89.918 93.8298 89.918 89.7656H87.918H85.918C85.918 93.2795 85.1948 96.134 83.8504 98.4196L85.5742 99.4336ZM87.918 89.7656H89.918C89.918 85.0152 87.0811 81.3096 82.2825 78.5918L81.2969 80.332L80.3112 82.0723C84.3407 84.3545 85.918 86.9379 85.918 89.7656H87.918ZM81.2969 80.332L82.2825 78.5918C77.5166 75.8925 71.7656 74.5105 65.1152 74.3483L65.0664 76.3477L65.0176 78.3471C71.1797 78.4974 76.249 79.7716 80.3112 82.0723L81.2969 80.332ZM141.59 116.074L140.56 117.788L140.561 117.789L141.59 116.074ZM133.445 82.793L131.636 81.9397L131.633 81.9472L133.445 82.793ZM141.414 72.0703L140.089 70.5726L140.08 70.5803L141.414 72.0703ZM153.25 64.3359L154.113 66.1402L154.119 66.1371L153.25 64.3359ZM221.102 79.5117L219.118 79.7637L219.277 81.0173L220.477 81.4118L221.102 79.5117ZM242.371 78.2812L241.493 76.4845L241.485 76.4884L241.477 76.4924L242.371 78.2812ZM244.891 83.6719L243.768 82.0164L243.761 82.0216L244.891 83.6719ZM221.102 87.7148L221.423 85.7408L219.378 85.408L219.117 87.4629L221.102 87.7148ZM205.867 112.266L204.685 110.652L204.684 110.653L205.867 112.266ZM190.164 119.648L189.608 117.727L189.605 117.728L190.164 119.648ZM153.953 120.762L154.389 118.81L154.381 118.808L154.373 118.806L153.953 120.762ZM180.145 106.465L178.581 105.217L178.573 105.228L180.145 106.465ZM186.941 92.8125L185.027 92.234L185.023 92.2467L186.941 92.8125ZM173.465 72.5977L172.051 71.1834L172.042 71.192L173.465 72.5977ZM165.73 85.2539L163.858 84.5501L163.855 84.5579L165.73 85.2539ZM141.59 116.074L142.62 114.36C135.913 110.329 132.574 104.301 132.574 95.9766H130.574H128.574C128.574 105.621 132.579 112.992 140.56 117.788L141.59 116.074ZM130.574 95.9766H132.574C132.574 91.5706 133.472 87.4659 135.258 83.6387L133.445 82.793L131.633 81.9472C129.591 86.3231 128.574 91.0075 128.574 95.9766H130.574ZM133.445 82.793L135.254 83.6462C137.095 79.7437 139.591 76.387 142.748 73.5603L141.414 72.0703L140.08 70.5803C136.518 73.7693 133.702 77.561 131.636 81.9397L133.445 82.793ZM141.414 72.0703L142.74 73.568C145.986 70.6947 149.772 68.2162 154.113 66.1402L153.25 64.3359L152.387 62.5317C147.743 64.7526 143.639 67.4303 140.089 70.5726L141.414 72.0703ZM153.25 64.3359L154.119 66.1371C162.792 61.9518 172.779 59.832 184.129 59.832V57.832V55.832C172.275 55.832 161.677 58.0482 152.381 62.5347L153.25 64.3359ZM184.129 57.832V59.832C195.371 59.832 203.746 61.6209 209.47 64.9772C215.085 68.2696 218.276 73.1382 219.118 79.7637L221.102 79.5117L223.086 79.2597C222.091 71.4321 218.203 65.4609 211.493 61.5267C204.893 57.6564 195.699 55.832 184.129 55.832V57.832ZM221.102 79.5117L220.477 81.4118C223.414 82.3767 226.437 82.8594 229.539 82.8594V80.8594V78.8594C226.86 78.8594 224.258 78.4436 221.726 77.6117L221.102 79.5117ZM229.539 80.8594V82.8594C232.553 82.8594 235.15 82.6396 237.293 82.1681L236.863 80.2148L236.434 78.2616C234.67 78.6495 232.384 78.8594 229.539 78.8594V80.8594ZM236.863 80.2148L237.293 82.1681C239.401 81.7044 241.393 81.0062 243.266 80.0701L242.371 78.2812L241.477 76.4924C239.911 77.2751 238.232 77.8659 236.434 78.2616L236.863 80.2148ZM242.371 78.2812L243.25 80.078C244.086 79.6691 244.757 79.3845 245.277 79.2058C245.535 79.117 245.738 79.0608 245.891 79.0278C245.966 79.0115 246.023 79.0023 246.064 78.9972C246.106 78.9921 246.123 78.9922 246.121 78.9922V76.9922V74.9922C245.42 74.9922 244.674 75.1833 243.977 75.4231C243.246 75.6741 242.414 76.034 241.493 76.4845L242.371 78.2812ZM246.121 76.9922V78.9922C246.336 78.9922 246.444 79.0191 246.478 79.03C246.502 79.038 246.457 79.0268 246.396 78.9671C246.333 78.9063 246.314 78.8536 246.316 78.8594C246.322 78.8756 246.348 78.9642 246.348 79.1602H248.348H250.348C250.348 78.1155 250.076 76.9678 249.186 76.1012C248.306 75.2443 247.158 74.9922 246.121 74.9922V76.9922ZM248.348 79.1602H246.348C246.348 79.5212 246.003 80.5017 243.768 82.0165L244.891 83.6719L246.013 85.3273C248.388 83.7171 250.348 81.6898 250.348 79.1602H248.348ZM244.891 83.6719L243.761 82.0216C239.858 84.6938 234.551 86.125 227.664 86.125V88.125V90.125C235.074 90.125 241.251 88.5875 246.021 85.3221L244.891 83.6719ZM227.664 88.125V86.125C225.022 86.125 222.954 85.99 221.423 85.7408L221.102 87.7148L220.78 89.6889C222.609 89.9866 224.916 90.125 227.664 90.125V88.125ZM221.102 87.7148L219.117 87.4629C217.945 96.6977 213.204 104.413 204.685 110.652L205.867 112.266L207.049 113.879C216.343 107.072 221.758 98.4195 223.086 87.9668L221.102 87.7148ZM205.867 112.266L204.684 110.653C200.653 113.612 195.642 115.981 189.608 117.727L190.164 119.648L190.72 121.57C197.108 119.722 202.566 117.169 207.051 113.878L205.867 112.266ZM190.164 119.648L189.605 117.728C183.621 119.47 177.403 120.344 170.945 120.344V122.344V124.344C177.769 124.344 184.364 123.42 190.723 121.569L190.164 119.648ZM170.945 122.344V120.344C164.441 120.344 158.931 119.823 154.389 118.81L153.953 120.762L153.518 122.714C158.428 123.809 164.246 124.344 170.945 124.344V122.344ZM153.953 120.762L154.373 118.806C149.824 117.829 145.916 116.337 142.619 114.359L141.59 116.074L140.561 117.789C144.295 120.03 148.629 121.663 153.533 122.717L153.953 120.762ZM162.859 101.133H160.859C160.859 104.93 161.542 108.14 163.221 110.442C164.987 112.861 167.624 113.973 170.77 113.973V111.973V109.973C168.642 109.973 167.324 109.278 166.452 108.084C165.496 106.772 164.859 104.562 164.859 101.133H162.859ZM170.77 111.973V113.973C174.957 113.973 178.603 111.656 181.716 107.702L180.145 106.465L178.573 105.228C175.905 108.617 173.3 109.973 170.77 109.973V111.973ZM180.145 106.465L181.708 107.712C184.828 103.801 187.2 99.0063 188.86 93.3783L186.941 92.8125L185.023 92.2467C183.48 97.478 181.32 101.785 178.581 105.217L180.145 106.465ZM186.941 92.8125L188.856 93.391C190.553 87.7753 191.402 82.0531 191.402 76.2305H189.402H187.402C187.402 81.6578 186.611 86.9903 185.027 92.234L186.941 92.8125ZM189.402 76.2305H191.402C191.402 73.2278 190.891 70.6199 189.564 68.7153C188.146 66.6792 186.003 65.7344 183.484 65.7344V67.7344V69.7344C184.911 69.7344 185.727 70.2055 186.282 71.0015C186.928 71.929 187.402 73.5691 187.402 76.2305H189.402ZM183.484 67.7344V65.7344C179.358 65.7344 175.539 67.6955 172.051 71.1834L173.465 72.5977L174.879 74.0119C177.876 71.0154 180.736 69.7344 183.484 69.7344V67.7344ZM173.465 72.5977L172.042 71.192C168.603 74.6726 165.889 79.1479 163.858 84.5501L165.73 85.2539L167.603 85.9577C169.478 80.9693 171.92 77.0071 174.888 74.0033L173.465 72.5977ZM165.73 85.2539L163.855 84.5579C161.86 89.9339 160.859 95.4624 160.859 101.133H162.859H164.859C164.859 95.9438 165.773 90.8864 167.605 85.9499L165.73 85.2539ZM262.059 115.43L263.339 113.893L262.478 113.176L261.416 113.536L262.059 115.43ZM232.586 119.297L231.446 120.94L231.465 120.953L231.484 120.966L232.586 119.297ZM237.391 90.8203L239.272 91.4976L239.274 91.4942L237.391 90.8203ZM251.922 38.3789H253.922V38.3526L253.921 38.3263L251.922 38.3789ZM251.863 36.1523H249.863V36.1787L249.864 36.205L251.863 36.1523ZM272.84 33.2227V35.2227H272.855L272.87 35.2224L272.84 33.2227ZM284.617 33.0469V31.0469H284.602L284.587 31.0471L284.617 33.0469ZM286.902 33.9844L285.35 35.2456L285.37 35.2702L285.391 35.2942L286.902 33.9844ZM276.883 70.0781L275.011 69.3738L278.297 71.4923L276.883 70.0781ZM276.941 70.0195L278.356 71.4337L278.401 71.3882L278.444 71.3398L276.941 70.0195ZM289.246 61.0547L290.05 62.886L290.057 62.8829L289.246 61.0547ZM313.211 111.797L311.951 110.244L306.869 114.365L313.387 113.789L313.211 111.797ZM343.27 104.18L344.228 105.935L344.234 105.932L344.241 105.928L343.27 104.18ZM346.258 108.516L347.399 110.158L347.425 110.14L347.45 110.121L346.258 108.516ZM288.25 122.109L288.244 120.109L288.167 120.11L288.091 120.116L288.25 122.109ZM272.078 120.469L272.656 118.554L272.644 118.551L272.078 120.469ZM270.086 89.5898L271.917 90.3944L271.918 90.3915L270.086 89.5898ZM268.27 108.75L266.761 110.064L266.773 110.077L266.785 110.091L268.27 108.75ZM284.793 106.23L286.038 107.795L286.04 107.794L284.793 106.23ZM262.059 115.43L261.416 113.536C255.734 115.462 251.108 116.897 247.527 117.847C243.885 118.814 241.498 119.23 240.203 119.23V121.23V123.23C242.072 123.23 244.91 122.68 248.553 121.713C252.257 120.73 256.977 119.264 262.701 117.324L262.059 115.43ZM240.203 121.23V119.23C237.341 119.23 235.221 118.64 233.688 117.628L232.586 119.297L231.484 120.966C233.857 122.532 236.815 123.23 240.203 123.23V121.23ZM232.586 119.297L233.726 117.654C232.232 116.617 231.715 115.54 231.715 114.375H229.715H227.715C227.715 117.116 229.112 119.321 231.446 120.94L232.586 119.297ZM229.715 114.375H231.715C231.715 114.407 231.717 114.292 231.793 113.927C231.861 113.599 231.969 113.159 232.123 112.596C232.431 111.474 232.9 109.943 233.535 107.993C234.805 104.096 236.716 98.6007 239.272 91.4976L237.391 90.8203L235.509 90.1431C232.948 97.2587 231.021 102.799 229.732 106.753C229.089 108.729 228.598 110.328 228.266 111.539C228.1 112.144 227.968 112.672 227.877 113.113C227.793 113.517 227.715 113.972 227.715 114.375H229.715ZM237.391 90.8203L239.274 91.4942C244.126 77.9362 247.776 66.7476 250.216 57.9413C252.641 49.1931 253.922 42.6203 253.922 38.3789H251.922H249.922C249.922 42.0282 248.781 48.1409 246.362 56.8732C243.958 65.5473 240.343 76.6341 235.508 90.1464L237.391 90.8203ZM251.922 38.3789L253.921 38.3263L253.863 36.0997L251.863 36.1523L249.864 36.205L249.923 38.4315L251.922 38.3789ZM251.863 36.1523H253.863C253.863 36.0018 253.895 35.9615 253.898 35.9566C253.907 35.9422 253.969 35.8523 254.201 35.7328C254.722 35.4639 255.759 35.2227 257.547 35.2227V33.2227V31.2227C255.545 31.2227 253.741 31.4697 252.368 32.1774C251.652 32.5462 251.003 33.0666 250.539 33.7846C250.069 34.5121 249.863 35.3263 249.863 36.1523H251.863ZM257.547 33.2227V35.2227H272.84V33.2227V31.2227H257.547V33.2227ZM272.84 33.2227L272.87 35.2224L284.647 35.0467L284.617 33.0469L284.587 31.0471L272.81 31.2229L272.84 33.2227ZM284.617 33.0469V35.0469C285.202 35.0469 285.318 35.2065 285.35 35.2456L286.902 33.9844L288.455 32.7232C287.471 31.5122 286.064 31.0469 284.617 31.0469V33.0469ZM286.902 33.9844L285.391 35.2942C285.599 35.5343 285.664 35.7385 285.664 35.9766H287.664H289.664C289.664 34.7302 289.221 33.6063 288.414 32.6745L286.902 33.9844ZM287.664 35.9766H285.664C285.664 36.6343 285.489 37.8323 285.045 39.6854C284.611 41.4967 283.953 43.8056 283.062 46.6237C281.281 52.2576 278.6 59.8366 275.011 69.3738L276.883 70.0781L278.755 70.7825C282.354 61.2181 285.063 53.5627 286.876 47.8295C287.782 44.9639 288.471 42.5561 288.935 40.6173C289.39 38.7204 289.664 37.1352 289.664 35.9766H287.664ZM276.883 70.0781L278.297 71.4923L278.356 71.4337L276.941 70.0195L275.527 68.6053L275.469 68.6639L276.883 70.0781ZM276.941 70.0195L278.444 71.3398C281.646 67.6962 285.507 64.8803 290.05 62.886L289.246 61.0547L288.442 59.2234C283.375 61.4478 279.034 64.6085 275.439 68.6993L276.941 70.0195ZM289.246 61.0547L290.057 62.8829C294.632 60.8538 299.569 59.832 304.891 59.832V57.832V55.832C299.041 55.832 293.548 56.9587 288.435 59.2265L289.246 61.0547ZM304.891 57.832V59.832C312.759 59.832 318.288 61.6744 321.85 65.0056C325.386 68.3133 327.324 73.4103 327.324 80.6836H329.324H331.324C331.324 72.7226 329.19 66.3937 324.582 62.0842C319.999 57.7983 313.311 55.832 304.891 55.832V57.832ZM329.324 80.6836H327.324C327.324 86.1987 325.967 91.5221 323.223 96.6773L324.988 97.6172L326.754 98.557C329.79 92.8529 331.324 86.8872 331.324 80.6836H329.324ZM324.988 97.6172L323.223 96.6773C320.463 101.862 316.712 106.382 311.951 110.244L313.211 111.797L314.471 113.35C319.631 109.165 323.732 104.232 326.754 98.557L324.988 97.6172ZM313.211 111.797L313.387 113.789C326.336 112.644 336.662 110.066 344.228 105.935L343.27 104.18L342.311 102.424C335.424 106.184 325.711 108.684 313.035 109.805L313.211 111.797ZM343.27 104.18L344.241 105.928C345.146 105.425 345.718 105.301 346.023 105.301V103.301V101.301C344.766 101.301 343.503 101.762 342.298 102.431L343.27 104.18ZM346.023 103.301V105.301C346.274 105.301 346.423 105.327 346.496 105.347C346.564 105.366 346.535 105.37 346.469 105.316C346.436 105.289 346.403 105.254 346.373 105.214C346.343 105.173 346.324 105.136 346.313 105.108C346.291 105.054 346.309 105.063 346.309 105.176H348.309H350.309C350.309 104.127 349.97 103.014 349.006 102.223C348.118 101.495 347.008 101.301 346.023 101.301V103.301ZM348.309 105.176H346.309C346.309 105.523 346.144 106.108 345.065 106.91L346.258 108.516L347.45 110.121C349.106 108.892 350.309 107.251 350.309 105.176H348.309ZM346.258 108.516L345.117 106.873C340.291 110.226 332.672 113.298 322.089 116.012L322.586 117.949L323.083 119.887C333.828 117.131 341.991 113.915 347.399 110.158L346.258 108.516ZM322.586 117.949L322.089 116.012C311.602 118.701 300.323 120.071 288.244 120.109L288.25 122.109L288.256 124.109C300.63 124.07 312.242 122.666 323.083 119.887L322.586 117.949ZM288.25 122.109L288.091 120.116C286.2 120.267 284.105 120.344 281.805 120.344V122.344V124.344C284.192 124.344 286.394 124.264 288.409 124.103L288.25 122.109ZM281.805 122.344V120.344C279.757 120.344 276.739 119.787 272.656 118.554L272.078 120.469L271.5 122.383C275.698 123.651 279.165 124.344 281.805 124.344V122.344ZM272.078 120.469L272.644 118.551C268.735 117.397 265.659 115.826 263.339 113.893L262.059 115.43L260.778 116.966C263.615 119.33 267.218 121.119 271.512 122.387L272.078 120.469ZM288.484 72.7148V70.7148C279.893 70.7148 273.261 77.3433 268.254 88.7882L270.086 89.5898L271.918 90.3915C276.755 79.3364 282.388 74.7148 288.484 74.7148V72.7148ZM270.086 89.5898L268.255 88.7853C265.95 94.0316 264.688 98.5133 264.688 102.129H266.688H268.688C268.688 99.3383 269.691 95.4606 271.917 90.3944L270.086 89.5898ZM266.688 102.129H264.688C264.688 105.405 265.197 108.267 266.761 110.064L268.27 108.75L269.778 107.436C269.233 106.811 268.688 105.259 268.688 102.129H266.688ZM268.27 108.75L266.785 110.091C268.486 111.974 271.373 112.566 274.598 112.566V110.566V108.566C271.572 108.566 270.24 107.948 269.754 107.409L268.27 108.75ZM274.598 110.566V112.566C278.383 112.566 282.211 110.841 286.038 107.795L284.793 106.23L283.548 104.665C280.109 107.402 277.141 108.566 274.598 108.566V110.566ZM284.793 106.23L286.04 107.794C289.949 104.675 293.077 100.773 295.426 96.1156L293.641 95.2148L291.855 94.3141C289.751 98.4849 286.981 101.926 283.546 104.667L284.793 106.23ZM293.641 95.2148L295.426 96.1156C297.74 91.5287 298.98 87.2496 298.98 83.3203H296.98H294.98C294.98 86.4223 293.994 90.0729 291.855 94.3141L293.641 95.2148ZM296.98 83.3203H298.98C298.98 79.5184 298.151 76.2946 296.132 74.0228L294.637 75.3516L293.142 76.6803C294.248 77.9241 294.98 80.0128 294.98 83.3203H296.98ZM294.637 75.3516L296.132 74.0228C294.157 71.8012 291.544 70.7148 288.484 70.7148V72.7148V74.7148C290.503 74.7148 291.992 75.3863 293.142 76.6803L294.637 75.3516ZM401.512 90.5859L399.681 89.7814L399.679 89.7843L401.512 90.5859ZM403.27 71.4258L401.761 72.7393L401.773 72.753L401.785 72.7664L403.27 71.4258ZM386.746 74.0039L387.991 75.5689L387.993 75.5673L386.746 74.0039ZM413.582 57.832L413.674 55.8341L413.628 55.832H413.582V57.832ZM440.418 59.0625L440.326 61.0604L440.372 61.0625H440.418V59.0625ZM442.703 60L441.151 61.2612L441.171 61.2858L441.192 61.3099L442.703 60ZM439.891 75.6445L438.022 74.9321L438.019 74.9384L439.891 75.6445ZM432.801 94.1602L430.937 93.4358L430.934 93.4422L432.801 94.1602ZM430.164 110.039L428.799 111.501L428.823 111.523L428.847 111.544L430.164 110.039ZM443.055 108.398L443.736 110.279L443.745 110.276L443.055 108.398ZM452.312 104.59L451.384 102.818L451.376 102.823L451.367 102.828L452.312 104.59ZM440.77 116.719L440.027 114.862L440.017 114.866L440.77 116.719ZM426.473 120.703L426.102 118.738L426.094 118.739L426.086 118.741L426.473 120.703ZM392.254 113.203L394.158 112.593L393.158 109.471L390.84 111.789L392.254 113.203ZM349.715 117.246L348.57 118.886L348.572 118.888L349.715 117.246ZM349.188 76.5234L350.825 77.6722L350.832 77.661L349.188 76.5234ZM370.984 60.293L370.365 58.3912L370.364 58.3916L370.984 60.293ZM407.898 64.3945L406.57 65.8893L409.276 68.2949L409.871 64.7233L407.898 64.3945ZM407.957 63.2812H409.957V63.258L409.956 63.2348L407.957 63.2812ZM407.898 60.7617H405.898V60.785L405.899 60.8082L407.898 60.7617ZM383.113 107.461V109.461C391.704 109.461 398.337 102.833 403.344 91.3876L401.512 90.5859L399.679 89.7843C394.843 100.839 389.21 105.461 383.113 105.461V107.461ZM401.512 90.5859L403.343 91.3905C405.648 86.1442 406.91 81.6625 406.91 78.0469H404.91H402.91C402.91 80.8375 401.907 84.7152 399.681 89.7814L401.512 90.5859ZM404.91 78.0469H406.91C406.91 74.7604 406.379 71.8842 404.754 70.0852L403.27 71.4258L401.785 72.7664C402.348 73.3892 402.91 74.9271 402.91 78.0469H404.91ZM403.27 71.4258L404.778 70.1122C403.106 68.193 400.183 67.6094 396.941 67.6094V69.6094V71.6094C400.028 71.6094 401.324 72.2367 401.761 72.7393L403.27 71.4258ZM396.941 69.6094V67.6094C393.185 67.6094 389.354 69.3643 385.499 72.4405L386.746 74.0039L387.993 75.5673C391.482 72.7842 394.448 71.6094 396.941 71.6094V69.6094ZM386.746 74.0039L385.501 72.4389C381.628 75.5209 378.519 79.4053 376.171 84.0602L377.957 84.9609L379.743 85.8617C381.848 81.6884 384.599 78.2682 387.991 75.5689L386.746 74.0039ZM377.957 84.9609L376.171 84.0602C373.856 88.6507 372.617 92.9487 372.617 96.9141H374.617H376.617C376.617 93.7701 377.605 90.0993 379.743 85.8617L377.957 84.9609ZM374.617 96.9141H372.617C372.617 100.684 373.45 103.885 375.466 106.153L376.961 104.824L378.456 103.495C377.347 102.248 376.617 100.176 376.617 96.9141H374.617ZM376.961 104.824L375.466 106.153C377.441 108.375 380.054 109.461 383.113 109.461V107.461V105.461C381.094 105.461 379.606 104.79 378.456 103.495L376.961 104.824ZM413.582 57.832L413.49 59.8299L440.326 61.0604L440.418 59.0625L440.51 57.0646L413.674 55.8341L413.582 57.832ZM440.418 59.0625V61.0625C441.003 61.0625 441.119 61.2222 441.151 61.2612L442.703 60L444.255 58.7388C443.271 57.5278 441.864 57.0625 440.418 57.0625V59.0625ZM442.703 60L441.192 61.3099C441.4 61.5499 441.465 61.7541 441.465 61.9922H443.465H445.465C445.465 60.7459 445.022 59.622 444.215 58.6901L442.703 60ZM443.465 61.9922H441.465C441.465 64.4402 440.404 68.6848 438.022 74.9321L439.891 75.6445L441.759 76.357C444.143 70.1042 445.465 65.2473 445.465 61.9922H443.465ZM439.891 75.6445L438.019 74.9384C435.678 81.1433 433.317 87.3091 430.937 93.4358L432.801 94.1602L434.665 94.8845C437.05 88.7456 439.416 82.5676 441.762 76.3506L439.891 75.6445ZM432.801 94.1602L430.934 93.4422C429.752 96.5166 428.851 99.1089 428.243 101.206C427.65 103.254 427.285 104.992 427.285 106.289H429.285H431.285C431.285 105.594 431.507 104.315 432.085 102.319C432.649 100.373 433.506 97.8974 434.667 94.8781L432.801 94.1602ZM429.285 106.289H427.285C427.285 107.348 427.363 108.317 427.558 109.148C427.745 109.946 428.091 110.84 428.799 111.501L430.164 110.039L431.529 108.577C431.651 108.692 431.558 108.687 431.452 108.235C431.354 107.816 431.285 107.183 431.285 106.289H429.285ZM430.164 110.039L428.847 111.544C430.067 112.611 431.91 112.859 433.68 112.859V110.859V108.859C432.914 108.859 432.355 108.797 431.966 108.707C431.566 108.613 431.461 108.516 431.481 108.534L430.164 110.039ZM433.68 110.859V112.859C434.8 112.859 436.21 112.601 437.82 112.179C439.462 111.748 441.438 111.111 443.736 110.279L443.055 108.398L442.374 106.518C440.14 107.327 438.288 107.92 436.805 108.31C435.29 108.707 434.278 108.859 433.68 108.859V110.859ZM443.055 108.398L443.745 110.276C448.304 108.6 451.516 107.287 453.258 106.352L452.312 104.59L451.367 102.828C449.906 103.611 446.946 104.837 442.365 106.521L443.055 108.398ZM452.312 104.59L453.241 106.362C454.853 105.517 455.728 105.301 456.062 105.301V103.301V101.301C454.679 101.301 453.053 101.944 451.384 102.818L452.312 104.59ZM456.062 103.301V105.301C456.3 105.301 456.433 105.328 456.489 105.345C456.539 105.36 456.503 105.358 456.441 105.302C456.411 105.275 456.385 105.245 456.364 105.213C456.343 105.183 456.333 105.159 456.33 105.151C456.325 105.136 456.348 105.19 456.348 105.352H458.348H460.348C460.348 104.3 460.045 103.162 459.112 102.325C458.221 101.525 457.082 101.301 456.062 101.301V103.301ZM458.348 105.352H456.348C456.348 105.387 456.323 105.711 455.746 106.369C455.184 107.01 454.254 107.785 452.867 108.682C450.1 110.472 445.846 112.534 440.027 114.862L440.77 116.719L441.512 118.576C447.412 116.216 451.947 114.04 455.039 112.041C456.582 111.043 457.85 110.036 458.753 109.007C459.64 107.995 460.348 106.762 460.348 105.352H458.348ZM440.77 116.719L440.017 114.866C436.228 116.404 431.597 117.7 426.102 118.738L426.473 120.703L426.844 122.668C432.52 121.597 437.42 120.237 441.522 118.572L440.77 116.719ZM426.473 120.703L426.086 118.741C420.668 119.809 415.153 120.344 409.539 120.344V122.344V124.344C415.409 124.344 421.183 123.785 426.86 122.665L426.473 120.703ZM409.539 122.344V120.344C404.938 120.344 401.464 119.607 398.975 118.291C396.547 117.006 394.972 115.132 394.158 112.593L392.254 113.203L390.349 113.814C391.489 117.368 393.772 120.064 397.105 121.827C400.377 123.557 404.569 124.344 409.539 124.344V122.344ZM392.254 113.203L390.84 111.789C385.193 117.435 377.538 120.344 367.645 120.344V122.344V124.344C378.376 124.344 387.127 121.158 393.668 114.617L392.254 113.203ZM367.645 122.344V120.344C360.904 120.344 355.346 118.728 350.857 115.605L349.715 117.246L348.572 118.888C353.85 122.561 360.244 124.344 367.645 124.344V122.344ZM349.715 117.246L350.86 115.606C346.209 112.357 343.746 107.212 343.746 99.7266H341.746H339.746C339.746 108.179 342.596 114.713 348.57 118.886L349.715 117.246ZM341.746 99.7266H343.746C343.746 91.7515 346.093 84.4162 350.825 77.6722L349.188 76.5234L347.55 75.3747C342.36 82.7713 339.746 90.9047 339.746 99.7266H341.746ZM349.188 76.5234L350.832 77.661C356.013 70.1704 362.918 65.0279 371.605 62.1944L370.984 60.293L370.364 58.3916C360.848 61.4956 353.222 67.1733 347.543 75.3859L349.188 76.5234ZM370.984 60.293L371.604 62.1947C376.425 60.6248 381.625 59.832 387.215 59.832V57.832V55.832C381.242 55.832 375.622 56.6799 370.365 58.3912L370.984 60.293ZM387.215 57.832V59.832C395.764 59.832 402.125 61.9382 406.57 65.8893L407.898 64.3945L409.227 62.8997C403.828 58.1009 396.4 55.832 387.215 55.832V57.832ZM407.898 64.3945L409.871 64.7233C409.939 64.3155 409.957 63.8044 409.957 63.2812H407.957H405.957C405.957 63.7737 405.936 64.0048 405.926 64.0657L407.898 64.3945ZM407.957 63.2812L409.956 63.2348L409.898 60.7152L407.898 60.7617L405.899 60.8082L405.958 63.3277L407.957 63.2812ZM407.898 60.7617H409.898C409.898 60.6112 409.93 60.5709 409.933 60.566C409.942 60.5516 410.004 60.4616 410.236 60.3422C410.757 60.0732 411.794 59.832 413.582 59.832V57.832V55.832C411.581 55.832 409.776 56.0791 408.403 56.7867C407.687 57.1556 407.039 57.676 406.574 58.3939C406.104 59.1215 405.898 59.9357 405.898 60.7617H407.898ZM565.926 109.219L567.107 110.832L567.113 110.828L565.926 109.219ZM546.297 118.184L545.69 116.278L545.688 116.279L546.297 118.184ZM509.207 120.293L510.017 118.464L510.006 118.46L509.207 120.293ZM502.879 113.203L504.77 112.551L503.717 109.498L501.453 111.801L502.879 113.203ZM493.094 119.531L493.9 121.362L493.907 121.359L493.914 121.355L493.094 119.531ZM467.957 121.055L468.506 119.132L468.495 119.128L468.483 119.125L467.957 121.055ZM453.895 110.215L452.083 111.062L452.089 111.076L452.096 111.09L453.895 110.215ZM459.168 76.5234L457.529 75.3777L457.526 75.3813L459.168 76.5234ZM481.023 60.293L480.404 58.3912L480.4 58.3927L481.023 60.293ZM520.926 64.9219L519.724 66.5207L522.384 68.52L522.901 65.2327L520.926 64.9219ZM524.207 37.6758H526.207V37.6413L526.206 37.6069L524.207 37.6758ZM524.148 35.9766H522.148V36.011L522.15 36.0455L524.148 35.9766ZM529.832 33.0469L529.926 31.0491L529.879 31.0469H529.832V33.0469ZM556.082 34.2773L555.988 36.2752L556.035 36.2773H556.082V34.2773ZM558.309 35.1562L556.846 36.5209L556.87 36.5461L556.894 36.5705L558.309 35.1562ZM549.461 74.5312L551.354 75.1778L551.354 75.1766L549.461 74.5312ZM540.555 109.512L538.878 110.602L538.897 110.63L538.916 110.659L540.555 109.512ZM511.551 90.5859L509.778 89.6608L509.746 89.7215L509.718 89.7843L511.551 90.5859ZM514.129 71.0742L512.621 72.3878L512.633 72.4014L512.645 72.4148L514.129 71.0742ZM488.113 84.9023L486.34 83.9772L486.337 83.9831L488.113 84.9023ZM565.75 103.301V105.301C566.364 105.301 566.452 105.445 566.381 105.38C566.344 105.347 566.336 105.318 566.344 105.339C566.356 105.372 566.387 105.48 566.387 105.703H568.387H570.387C570.387 104.544 570.06 103.321 569.075 102.423C568.124 101.557 566.894 101.301 565.75 101.301V103.301ZM568.387 105.703H566.387C566.387 105.835 566.26 106.486 564.738 107.61L565.926 109.219L567.113 110.828C568.873 109.529 570.387 107.837 570.387 105.703H568.387ZM565.926 109.219L564.744 107.605C560.623 110.622 554.316 113.532 545.69 116.278L546.297 118.184L546.904 120.089C555.7 117.289 562.478 114.221 567.107 110.832L565.926 109.219ZM546.297 118.184L545.688 116.279C537.14 119.012 529.775 120.344 523.562 120.344V122.344V124.344C530.318 124.344 538.11 122.902 546.906 120.089L546.297 118.184ZM523.562 122.344V120.344C517.147 120.344 512.708 119.657 510.017 118.464L509.207 120.293L508.397 122.122C511.878 123.664 517.009 124.344 523.562 124.344V122.344ZM509.207 120.293L510.006 118.46C507.518 117.375 505.776 115.469 504.77 112.551L502.879 113.203L500.988 113.855C502.326 117.734 504.803 120.555 508.408 122.126L509.207 120.293ZM502.879 113.203L501.453 111.801C499.42 113.869 496.397 115.853 492.274 117.707L493.094 119.531L493.914 121.355C498.306 119.381 501.806 117.147 504.305 114.605L502.879 113.203ZM493.094 119.531L492.288 117.701C488.29 119.461 484.054 120.344 479.559 120.344V122.344V124.344C484.595 124.344 489.382 123.351 493.9 121.362L493.094 119.531ZM479.559 122.344V120.344C474.933 120.344 471.269 119.921 468.506 119.132L467.957 121.055L467.408 122.978C470.66 123.907 474.731 124.344 479.559 124.344V122.344ZM467.957 121.055L468.483 119.125C465.688 118.363 463.165 117.189 460.899 115.606L459.754 117.246L458.609 118.886C461.265 120.741 464.21 122.106 467.431 122.984L467.957 121.055ZM459.754 117.246L460.899 115.606C458.745 114.102 457.004 112.033 455.693 109.339L453.895 110.215L452.096 111.09C453.675 114.334 455.841 116.953 458.609 118.886L459.754 117.246ZM453.895 110.215L455.706 109.368C454.446 106.673 453.785 103.476 453.785 99.7266H451.785H449.785C449.785 103.946 450.53 107.741 452.083 111.062L453.895 110.215ZM451.785 99.7266H453.785C453.785 95.9481 454.359 92.1809 455.514 88.4189L453.602 87.832L451.69 87.2452C450.422 91.3738 449.785 95.5362 449.785 99.7266H451.785ZM453.602 87.832L455.514 88.4189C456.66 84.6832 458.421 81.0997 460.81 77.6656L459.168 76.5234L457.526 75.3813C454.915 79.1347 452.965 83.0902 451.69 87.2452L453.602 87.832ZM459.168 76.5234L460.807 77.6692C463.233 74.1984 466.125 71.1378 469.489 68.4843L468.25 66.9141L467.011 65.3439C463.344 68.2372 460.181 71.5829 457.529 75.3777L459.168 76.5234ZM468.25 66.9141L469.489 68.4843C472.791 65.8791 476.832 63.7733 481.647 62.1933L481.023 60.293L480.4 58.3927C475.215 60.0939 470.74 62.4022 467.011 65.3439L468.25 66.9141ZM481.023 60.293L481.643 62.1947C486.464 60.6248 491.664 59.832 497.254 59.832V57.832V55.832C491.281 55.832 485.661 56.6799 480.404 58.3912L481.023 60.293ZM497.254 57.832V59.832C506.405 59.832 513.849 62.1048 519.724 66.5207L520.926 64.9219L522.127 63.3231C515.425 58.2858 507.088 55.832 497.254 55.832V57.832ZM520.926 64.9219L522.901 65.2327C525.083 51.3637 526.207 42.1196 526.207 37.6758H524.207H522.207C522.207 41.7476 521.143 50.6675 518.95 64.6111L520.926 64.9219ZM524.207 37.6758L526.206 37.6069L526.147 35.9076L524.148 35.9766L522.15 36.0455L522.208 37.7447L524.207 37.6758ZM524.148 35.9766H526.148C526.148 35.826 526.18 35.7857 526.183 35.7809C526.192 35.7664 526.254 35.6765 526.486 35.557C527.007 35.2881 528.044 35.0469 529.832 35.0469V33.0469V31.0469C527.831 31.0469 526.026 31.2939 524.653 32.0016C523.937 32.3704 523.289 32.8908 522.824 33.6088C522.354 34.3364 522.148 35.1506 522.148 35.9766H524.148ZM529.832 33.0469L529.738 35.0447L555.988 36.2752L556.082 34.2773L556.176 32.2795L529.926 31.0491L529.832 33.0469ZM556.082 34.2773V36.2773C556.568 36.2773 556.743 36.4096 556.846 36.5209L558.309 35.1562L559.771 33.7916C558.781 32.731 557.471 32.2773 556.082 32.2773V34.2773ZM558.309 35.1562L556.894 36.5705C557.107 36.7835 557.129 36.9141 557.129 37.0312H559.129H561.129C561.129 35.7422 560.604 34.6228 559.723 33.742L558.309 35.1562ZM559.129 37.0312H557.129C557.129 39.8094 556.38 44.2509 554.775 50.4773C553.181 56.6591 550.782 64.458 547.568 73.8859L549.461 74.5312L551.354 75.1766C554.585 65.6983 557.02 57.794 558.649 51.4759C560.266 45.2022 561.129 40.3468 561.129 37.0312H559.129ZM549.461 74.5312L547.568 73.8847C544.344 83.3239 541.92 90.6488 540.3 95.8508C539.491 98.4497 538.877 100.537 538.464 102.101C538.257 102.882 538.095 103.552 537.984 104.1C537.881 104.609 537.793 105.14 537.793 105.586H539.793H541.793C541.793 105.601 541.793 105.554 541.812 105.417C541.829 105.289 541.859 105.118 541.904 104.897C541.994 104.454 542.134 103.866 542.331 103.124C542.723 101.641 543.317 99.6167 544.12 97.0398C545.723 91.8902 548.133 84.6058 551.354 75.1778L549.461 74.5312ZM539.793 105.586H537.793C537.793 107.497 538.037 109.308 538.878 110.602L540.555 109.512L542.232 108.422C542.057 108.153 541.793 107.347 541.793 105.586H539.793ZM540.555 109.512L538.916 110.659C540.049 112.277 542.048 112.684 543.895 112.684V110.684V108.684C543.193 108.684 542.736 108.6 542.462 108.503C542.205 108.413 542.175 108.339 542.193 108.365L540.555 109.512ZM543.895 110.684V112.684C545.95 112.684 549.134 111.865 553.215 110.466L552.566 108.574L551.918 106.682C547.796 108.096 545.199 108.684 543.895 108.684V110.684ZM552.566 108.574L553.215 110.466C557.343 109.051 560.535 107.784 562.732 106.665L561.824 104.883L560.916 103.101C558.973 104.091 555.992 105.285 551.918 106.682L552.566 108.574ZM561.824 104.883L562.732 106.665C563.744 106.15 564.53 105.784 565.106 105.551C565.394 105.435 565.603 105.363 565.744 105.323C565.911 105.276 565.887 105.301 565.75 105.301V103.301V101.301C565.04 101.301 564.241 101.587 563.611 101.841C562.879 102.136 561.975 102.561 560.916 103.101L561.824 104.883ZM493.152 107.461V109.461C501.743 109.461 508.376 102.833 513.383 91.3876L511.551 90.5859L509.718 89.7843C504.882 100.839 499.249 105.461 493.152 105.461V107.461ZM511.551 90.5859L513.324 91.5111C516.221 85.9587 517.77 80.8673 517.77 76.2891H515.77H513.77C513.77 79.992 512.506 84.4319 509.778 89.6608L511.551 90.5859ZM515.77 76.2891H517.77C517.77 73.7211 517.149 71.4338 515.613 69.7336L514.129 71.0742L512.645 72.4148C513.297 73.1365 513.77 74.3258 513.77 76.2891H515.77ZM514.129 71.0742L515.637 69.7607C513.962 67.8379 511.013 67.2578 507.742 67.2578V69.2578V71.2578C510.877 71.2578 512.186 71.8887 512.621 72.3878L514.129 71.0742ZM507.742 69.2578V67.2578C503.951 67.2578 500.046 69.0287 496.079 72.1366L497.312 73.7109L498.546 75.2853C502.157 72.4557 505.205 71.2578 507.742 71.2578V69.2578ZM497.312 73.7109L496.079 72.1366C492.054 75.2901 488.808 79.2463 486.34 83.9772L488.113 84.9023L489.886 85.8275C492.106 81.5741 494.993 78.0693 498.546 75.2853L497.312 73.7109ZM488.113 84.9023L486.337 83.9831C483.942 88.6107 482.656 92.9354 482.656 96.9141H484.656H486.656C486.656 93.7833 487.675 90.1002 489.889 85.8216L488.113 84.9023ZM484.656 96.9141H482.656C482.656 100.684 483.489 103.885 485.505 106.153L487 104.824L488.495 103.495C487.386 102.248 486.656 100.176 486.656 96.9141H484.656ZM487 104.824L485.505 106.153C487.48 108.375 490.093 109.461 493.152 109.461V107.461V105.461C491.133 105.461 489.645 104.79 488.495 103.495L487 104.824ZM655.691 108.75L656.688 110.484L656.699 110.478L655.691 108.75ZM648.836 112.207L649.646 114.036L649.657 114.031L649.667 114.026L648.836 112.207ZM637.527 116.543L636.867 114.655L636.867 114.655L637.527 116.543ZM567.977 76.875L566.427 75.6101L566.426 75.6112L567.977 76.875ZM588.191 62.7539L588.909 64.6208L588.916 64.6179L588.191 62.7539ZM637.645 62.4609L636.532 64.1229L636.538 64.1272L637.645 62.4609ZM637.938 88.7695L636.698 87.1998L636.691 87.2051L637.938 88.7695ZM620.301 96.6211L620.754 98.569L620.757 98.5685L620.301 96.6211ZM594.93 100.254L594.783 98.2593L592.729 98.4108L592.94 100.459L594.93 100.254ZM607.938 111.562L607.575 113.529L607.589 113.532L607.603 113.534L607.938 111.562ZM654.051 103.828L654.66 105.733L654.672 105.729L654.683 105.725L654.051 103.828ZM594.988 93.8086L592.995 93.6482L592.766 96.4965L595.52 95.7366L594.988 93.8086ZM605.418 68.9062L604.176 67.3388L604.169 67.3445L604.161 67.3504L605.418 68.9062ZM600.262 75.3516L602.022 76.3005L602.026 76.2939L602.029 76.2873L600.262 75.3516ZM656.453 103.301V105.301C656.546 105.301 656.616 105.306 656.667 105.313C656.717 105.32 656.743 105.327 656.751 105.33C656.757 105.332 656.744 105.328 656.718 105.313C656.691 105.298 656.656 105.274 656.619 105.239C656.582 105.204 656.552 105.167 656.528 105.13C656.505 105.094 656.494 105.067 656.49 105.055C656.486 105.044 656.49 105.051 656.494 105.081C656.499 105.111 656.504 105.161 656.504 105.234H658.504H660.504C660.504 104.25 660.237 103.153 659.363 102.329C658.511 101.526 657.417 101.301 656.453 101.301V103.301ZM658.504 105.234H656.504C656.504 105.366 656.404 106.019 654.684 107.022L655.691 108.75L656.699 110.478C658.728 109.294 660.504 107.603 660.504 105.234H658.504ZM655.691 108.75L654.695 107.016C652.93 108.03 650.704 109.154 648.004 110.388L648.836 112.207L649.667 114.026C652.437 112.76 654.781 111.579 656.688 110.484L655.691 108.75ZM648.836 112.207L648.026 110.378C645.363 111.558 641.651 112.983 636.867 114.655L637.527 116.543L638.187 118.431C643.013 116.744 646.84 115.278 649.646 114.036L648.836 112.207ZM637.527 116.543L636.867 114.655C626.06 118.436 613.808 120.344 600.086 120.344V122.344V124.344C614.176 124.344 626.885 122.385 638.188 118.431L637.527 116.543ZM600.086 122.344V120.344C587.023 120.344 577.563 118.322 571.427 114.547C565.451 110.869 562.477 105.44 562.477 97.9688H560.477H558.477C558.477 106.748 562.104 113.506 569.331 117.953C576.398 122.303 586.743 124.344 600.086 124.344V122.344ZM560.477 97.9688H562.477C562.477 90.4985 564.818 83.9139 569.527 78.1388L567.977 76.875L566.426 75.6112C561.135 82.1018 558.477 89.5796 558.477 97.9688H560.477ZM567.977 76.875L569.526 78.1399C574.316 72.2723 580.752 67.7552 588.909 64.6208L588.191 62.7539L587.474 60.887C578.756 64.237 571.715 69.134 566.427 75.6101L567.977 76.875ZM588.191 62.7539L588.916 64.6179C597.101 61.4351 606.051 59.832 615.789 59.832V57.832V55.832C605.605 55.832 596.157 57.5102 587.467 60.8899L588.191 62.7539ZM615.789 57.832V59.832C625.628 59.832 632.423 61.3719 636.532 64.1229L637.645 62.4609L638.757 60.799C633.647 57.3781 625.872 55.832 615.789 55.832V57.832ZM637.645 62.4609L636.538 64.1272C640.652 66.8581 642.617 70.4829 642.617 75.1758H644.617H646.617C646.617 69.0874 643.934 64.2356 638.751 60.7947L637.645 62.4609ZM644.617 75.1758H642.617C642.617 80.0944 640.684 84.0533 636.698 87.1998L637.938 88.7695L639.177 90.3393C644.098 86.4545 646.617 81.3509 646.617 75.1758H644.617ZM637.938 88.7695L636.691 87.2051C632.573 90.4849 626.993 93.0009 619.845 94.6737L620.301 96.6211L620.757 98.5685C628.296 96.8038 634.473 94.0854 639.184 90.334L637.938 88.7695ZM620.301 96.6211L619.847 94.6732C612.587 96.3634 604.236 97.5619 594.783 98.2593L594.93 100.254L595.077 102.248C604.686 101.54 613.249 100.316 620.754 98.569L620.301 96.6211ZM594.93 100.254L592.94 100.459C593.301 103.958 594.763 106.893 597.338 109.131C599.867 111.33 603.341 112.748 607.575 113.529L607.938 111.562L608.3 109.596C604.487 108.892 601.77 107.684 599.963 106.113C598.202 104.582 597.183 102.604 596.919 100.049L594.93 100.254ZM607.938 111.562L607.603 113.534C609.794 113.906 612.094 114.09 614.5 114.09V112.09V110.09C612.297 110.09 610.222 109.922 608.272 109.591L607.938 111.562ZM614.5 112.09V114.09C623.963 114.09 637.39 111.255 654.66 105.733L654.051 103.828L653.442 101.923C636.259 107.417 623.318 110.09 614.5 110.09V112.09ZM654.051 103.828L654.683 105.725C655.699 105.387 656.245 105.301 656.453 105.301V103.301V101.301C655.568 101.301 654.511 101.566 653.418 101.931L654.051 103.828ZM594.988 93.8086L595.52 95.7366C602.556 93.7957 608.256 90.7851 612.502 86.6236L611.102 85.1953L609.702 83.767C606.057 87.3399 601.015 90.0715 594.456 91.8806L594.988 93.8086ZM611.102 85.1953L612.502 86.6236C616.826 82.3846 619.02 77.2037 619.02 71.1914H617.02H615.02C615.02 76.1166 613.268 80.2717 609.702 83.767L611.102 85.1953ZM617.02 71.1914H619.02C619.02 69.2699 618.374 67.5518 616.965 66.2601L615.613 67.7344L614.262 69.2087C614.728 69.6357 615.02 70.2223 615.02 71.1914H617.02ZM615.613 67.7344L616.965 66.2601C615.51 64.9266 613.504 64.4453 611.336 64.4453V66.4453V68.4453C612.996 68.4453 613.841 68.8234 614.262 69.2087L615.613 67.7344ZM611.336 66.4453V64.4453C608.858 64.4453 606.458 65.5303 604.176 67.3388L605.418 68.9062L606.66 70.4737C608.519 69.001 610.064 68.4453 611.336 68.4453V66.4453ZM605.418 68.9062L604.161 67.3504C601.89 69.1848 600.008 71.5563 598.494 74.4158L600.262 75.3516L602.029 76.2873C603.328 73.8344 604.883 71.909 606.675 70.4621L605.418 68.9062ZM600.262 75.3516L598.501 74.4026C595.39 80.1755 593.562 86.6002 592.995 93.6482L594.988 93.8086L596.982 93.969C597.509 87.4232 599.196 81.5433 602.022 76.3005L600.262 75.3516ZM708.719 68.2031L710.512 67.3169L710.508 67.3087L708.719 68.2031ZM712.586 77.4023L710.686 78.0267L711.69 81.0837L713.987 78.8297L712.586 77.4023ZM729.051 62.6953L730.274 64.2776L730.276 64.2761L729.051 62.6953ZM745.75 62.168L743.944 63.0278L743.95 63.0408L743.957 63.0537L745.75 62.168ZM747.215 75.9961L745.53 74.918L745.525 74.927L745.519 74.9361L747.215 75.9961ZM744.578 77.8125L744.97 79.7737L745.002 79.7674L745.033 79.7602L744.578 77.8125ZM726.707 79.7461L727.312 81.6526L727.319 81.6503L727.326 81.648L726.707 79.7461ZM715.809 85.8984L714.599 84.3058L713.411 85.2079L713.937 86.6036L715.809 85.8984ZM726.59 108.105L728.167 106.875L728.155 106.861L728.144 106.846L726.59 108.105ZM755.945 109.16L757.263 110.665L757.27 110.659L755.945 109.16ZM689.266 115.195L690.834 113.955L690.827 113.945L690.819 113.936L689.266 115.195ZM682.586 103.418L684.426 102.635L683.299 99.9834L681.209 101.968L682.586 103.418ZM647.488 117.598L645.712 118.518L645.719 118.531L645.726 118.543L647.488 117.598ZM647.605 102.188L647.783 104.18L647.809 104.177L647.835 104.174L647.605 102.188ZM653.113 101.895L653.055 99.8954L653.054 99.8954L653.113 101.895ZM661.375 101.484L661.238 99.4891L661.236 99.4892L661.375 101.484ZM679.363 94.9219L680.571 96.5161L681.714 95.65L681.261 94.2894L679.363 94.9219ZM677.43 89.0625L675.522 89.6622L675.526 89.6745L675.53 89.6868L677.43 89.0625ZM675.438 82.9688L677.323 82.3031L677.323 82.3014L675.438 82.9688ZM668.582 70.8984L667.634 72.6594L667.648 72.6668L667.661 72.6739L668.582 70.8984ZM657.625 64.3359L658.589 66.0884L658.597 66.0838L658.606 66.0791L657.625 64.3359ZM670.34 59.7656L669.875 57.8205L669.871 57.8212L670.34 59.7656ZM692.781 58.125L692.57 60.1138L692.591 60.116L692.612 60.1178L692.781 58.125ZM697.703 59.0625L697.086 60.9649L697.11 60.9725L697.133 60.9796L697.703 59.0625ZM701.512 60.4688L700.669 62.2828L700.697 62.2953L700.724 62.307L701.512 60.4688ZM704.5 62.5195L703.086 63.9337L703.101 63.9495L703.118 63.9648L704.5 62.5195ZM706.785 65.0391L705.194 66.2511L705.209 66.27L705.223 66.2885L706.785 65.0391ZM708.719 68.2031L706.926 69.0893C708.576 72.4279 709.824 75.4049 710.686 78.0267L712.586 77.4023L714.486 76.778C713.551 73.931 712.221 70.7752 710.512 67.317L708.719 68.2031ZM712.586 77.4023L713.987 78.8297C720.284 72.6492 725.711 67.8057 730.274 64.2776L729.051 62.6953L727.828 61.113C723.094 64.7725 717.544 69.7336 711.185 75.975L712.586 77.4023ZM729.051 62.6953L730.276 64.2761C734.924 60.6735 738.228 59.2461 740.359 59.2461V57.2461V55.2461C736.787 55.2461 732.552 57.4515 727.826 61.1145L729.051 62.6953ZM740.359 57.2461V59.2461C741.142 59.2461 742.442 59.872 743.944 63.0278L745.75 62.168L747.556 61.3081C745.933 57.9014 743.639 55.2461 740.359 55.2461V57.2461ZM745.75 62.168L743.957 63.0537C745.401 65.9781 746.152 69.3968 746.152 73.3594H748.152H750.152C750.152 68.8845 749.302 64.8422 747.543 61.2822L745.75 62.168ZM748.152 73.3594H746.152C746.152 73.6157 746.043 74.1171 745.53 74.918L747.215 75.9961L748.899 77.0742C749.637 75.922 750.152 74.6655 750.152 73.3594H748.152ZM747.215 75.9961L745.519 74.9361C745.239 75.3834 744.831 75.6998 744.124 75.8648L744.578 77.8125L745.033 79.7602C746.669 79.3783 748.019 78.4838 748.911 77.0561L747.215 75.9961ZM744.578 77.8125L744.186 75.8513C743.243 76.04 740.986 76.1641 737.195 76.1641V78.1641V80.1641C740.905 80.1641 743.57 80.0538 744.97 79.7737L744.578 77.8125ZM737.195 78.1641V76.1641C733.256 76.1641 729.549 76.7184 726.088 77.8442L726.707 79.7461L727.326 81.648C730.349 80.6645 733.635 80.1641 737.195 80.1641V78.1641ZM726.707 79.7461L726.103 77.8396C722.599 78.9506 718.759 81.1456 714.599 84.3058L715.809 85.8984L717.018 87.4911C720.983 84.4794 724.409 82.5729 727.312 81.6526L726.707 79.7461ZM715.809 85.8984L713.937 86.6036C718.113 97.6873 721.801 105.374 725.036 109.365L726.59 108.105L728.144 106.846C725.363 103.415 721.864 96.297 717.68 85.1933L715.809 85.8984ZM726.59 108.105L725.013 109.336C726.919 111.78 729.515 113.035 732.625 113.035V111.035V109.035C730.735 109.035 729.307 108.337 728.167 106.875L726.59 108.105ZM732.625 111.035V113.035C735.435 113.035 738.931 112.297 743.037 110.942L742.41 109.043L741.783 107.144C737.842 108.445 734.815 109.035 732.625 109.035V111.035ZM742.41 109.043L743.037 110.942C747.114 109.596 750.338 108.254 752.629 106.896L751.609 105.176L750.59 103.455C748.662 104.597 745.753 105.833 741.783 107.144L742.41 109.043ZM751.609 105.176L752.629 106.896C753.644 106.295 754.454 105.874 755.075 105.609C755.749 105.322 756.013 105.301 756.004 105.301V103.301V101.301C755.175 101.301 754.296 101.592 753.505 101.93C752.661 102.29 751.684 102.807 750.59 103.455L751.609 105.176ZM756.004 103.301V105.301C756.274 105.301 756.435 105.331 756.517 105.355C756.592 105.377 756.576 105.387 756.528 105.343C756.473 105.296 756.446 105.243 756.44 105.228C756.439 105.225 756.465 105.292 756.465 105.469H758.465H760.465C760.465 104.367 760.141 103.196 759.172 102.342C758.251 101.531 757.075 101.301 756.004 101.301V103.301ZM758.465 105.469H756.465C756.465 105.394 756.488 105.55 756.183 105.997C755.891 106.425 755.392 106.98 754.621 107.661L755.945 109.16L757.27 110.659C758.178 109.856 758.939 109.054 759.487 108.252C760.022 107.467 760.465 106.52 760.465 105.469H758.465ZM755.945 109.16L754.628 107.656C749.163 112.442 743.137 115.854 736.54 117.915L737.137 119.824L737.733 121.733C744.886 119.498 751.399 115.801 757.263 110.665L755.945 109.16ZM737.137 119.824L736.54 117.915C729.889 119.994 722.418 121.047 714.109 121.047V123.047V125.047C722.753 125.047 730.635 123.952 737.733 121.733L737.137 119.824ZM714.109 123.047V121.047C701.808 121.047 694.37 118.425 690.834 113.955L689.266 115.195L687.697 116.436C692.442 122.435 701.567 125.047 714.109 125.047V123.047ZM689.266 115.195L690.819 113.936C688.632 111.239 686.492 107.494 684.426 102.635L682.586 103.418L680.745 104.201C682.898 109.263 685.211 113.371 687.712 116.455L689.266 115.195ZM682.586 103.418L681.209 101.968C675.079 107.787 669.666 112.347 664.966 115.672L666.121 117.305L667.276 118.938C672.185 115.465 677.749 110.767 683.963 104.868L682.586 103.418ZM666.121 117.305L664.966 115.672C660.279 118.987 656.595 120.402 653.816 120.402V122.402V124.402C657.834 124.402 662.353 122.419 667.276 118.938L666.121 117.305ZM653.816 122.402V120.402C652.364 120.402 650.798 119.535 649.251 116.652L647.488 117.598L645.726 118.543C647.617 122.067 650.269 124.402 653.816 124.402V122.402ZM647.488 117.598L649.264 116.678C647.722 113.702 646.969 110.676 646.969 107.578H644.969H642.969C642.969 111.356 643.895 115.009 645.712 118.518L647.488 117.598ZM644.969 107.578H646.969C646.969 105.975 647.183 105.026 647.425 104.531C647.605 104.162 647.705 104.187 647.783 104.18L647.605 102.188L647.428 100.195C645.748 100.345 644.53 101.346 643.831 102.774C643.194 104.076 642.969 105.744 642.969 107.578H644.969ZM647.605 102.188L647.835 104.174C648.755 104.068 650.511 103.972 653.172 103.894L653.113 101.895L653.054 99.8954C650.403 99.9734 648.488 100.072 647.376 100.201L647.605 102.188ZM653.113 101.895L653.171 103.894C655.895 103.815 658.675 103.677 661.514 103.48L661.375 101.484L661.236 99.4892C658.45 99.6827 655.723 99.8181 653.055 99.8954L653.113 101.895ZM661.375 101.484L661.512 103.48C668.712 102.986 675.086 100.672 680.571 96.5161L679.363 94.9219L678.156 93.3277C673.328 96.9846 667.71 99.0453 661.238 99.4891L661.375 101.484ZM679.363 94.9219L681.261 94.2894C680.872 93.122 680.228 91.1725 679.33 88.4382L677.43 89.0625L675.53 89.6868C676.428 92.4213 677.074 94.378 677.466 95.5543L679.363 94.9219ZM677.43 89.0625L679.338 88.4628C678.477 85.724 677.804 83.6655 677.323 82.3031L675.438 82.9688L673.552 83.6344C674.008 84.9283 674.664 86.9322 675.522 89.6622L677.43 89.0625ZM675.438 82.9688L677.323 82.3014C676.073 78.7709 674.841 75.9043 673.617 73.7486C672.435 71.6667 671.097 69.9496 669.503 69.1229L668.582 70.8984L667.661 72.6739C668.176 72.941 669.036 73.7826 670.139 75.7241C671.2 77.5918 672.341 80.2135 673.552 83.6361L675.438 82.9688ZM668.582 70.8984L669.53 69.1375C668.091 68.3624 666.24 68.0781 664.188 68.0781V70.0781V72.0781C665.963 72.0781 667.042 72.3407 667.634 72.6594L668.582 70.8984ZM664.188 70.0781V68.0781C662.15 68.0781 660.149 68.2653 658.186 68.6412L658.562 70.6055L658.939 72.5698C660.648 72.2425 662.397 72.0781 664.188 72.0781V70.0781ZM658.562 70.6055L658.186 68.6412C657.279 68.8149 656.563 68.9419 656.029 69.0246C655.762 69.066 655.553 69.0946 655.395 69.1124C655.223 69.1316 655.159 69.1328 655.164 69.1328V71.1328V73.1328C655.554 73.1328 656.088 73.0633 656.643 72.9773C657.242 72.8843 658.01 72.7476 658.939 72.5698L658.562 70.6055ZM655.164 71.1328V69.1328C654.945 69.1328 654.831 69.1061 654.792 69.0938C654.762 69.0842 654.806 69.0932 654.87 69.1536C654.899 69.1815 654.923 69.2113 654.94 69.2387C654.949 69.2518 654.954 69.2627 654.958 69.2706C654.962 69.2785 654.963 69.2827 654.963 69.2825C654.962 69.279 654.938 69.2047 654.938 69.0234H652.938H650.938C650.938 70.0633 651.217 71.2034 652.119 72.0574C653 72.8922 654.14 73.1328 655.164 73.1328V71.1328ZM652.938 69.0234H654.938C654.938 69.086 654.91 68.8251 655.524 68.2111C656.115 67.6194 657.104 66.9052 658.589 66.0884L657.625 64.3359L656.661 62.5835C655.021 63.4854 653.666 64.4119 652.695 65.3827C651.747 66.3312 650.938 67.5547 650.938 69.0234H652.938ZM657.625 64.3359L658.606 66.0791C661.508 64.4462 665.551 62.9763 670.808 61.71L670.34 59.7656L669.871 57.8212C664.426 59.133 659.992 60.71 656.644 62.5928L657.625 64.3359ZM670.34 59.7656L670.805 61.7108C676.103 60.4439 680.567 59.832 684.227 59.832V57.832V55.832C680.151 55.832 675.358 56.5092 669.875 57.8205L670.34 59.7656ZM684.227 57.832V59.832C688.082 59.832 690.845 59.9303 692.57 60.1138L692.781 58.125L692.993 56.1362C691.046 55.9291 688.105 55.832 684.227 55.832V57.832ZM692.781 58.125L692.612 60.1178C694.326 60.2637 695.813 60.552 697.086 60.9649L697.703 59.0625L698.32 57.1601C696.703 56.6355 694.908 56.2988 692.951 56.1322L692.781 58.125ZM697.703 59.0625L697.133 60.9796C698.507 61.3881 699.682 61.8245 700.669 62.2828L701.512 60.4688L702.354 58.6547C701.153 58.0974 699.79 57.5963 698.273 57.1454L697.703 59.0625ZM701.512 60.4688L700.724 62.307C701.568 62.6689 702.355 63.2029 703.086 63.9337L704.5 62.5195L705.914 61.1053C704.848 60.0393 703.643 59.2061 702.3 58.6305L701.512 60.4688ZM704.5 62.5195L703.118 63.9648C703.955 64.7662 704.644 65.5287 705.194 66.2511L706.785 65.0391L708.376 63.827C707.676 62.9088 706.842 61.9917 705.882 61.0742L704.5 62.5195ZM706.785 65.0391L705.223 66.2885C705.729 66.9207 706.302 67.8411 706.93 69.0976L708.719 68.2031L710.508 67.3087C709.808 65.9089 709.091 64.7199 708.347 63.7897L706.785 65.0391Z" fill="black" mask="url(#path-1-outside-1_41_31)"/>
<path d="M174.5 43.5C199.482 43.5 219.5 62.6535 219.5 86C219.5 109.346 199.482 128.5 174.5 128.5C149.518 128.5 129.5 109.346 129.5 86C129.5 62.6535 149.518 43.5 174.5 43.5Z" fill="#322108" stroke="black" stroke-width="5"/>
<path d="M215.268 74.0708C212.527 76.7039 204.153 69.4738 194 63C183.847 56.5261 173.701 51.8007 176.441 49.1675C179.182 46.5344 192.122 47.6022 202.275 54.076C212.428 60.5499 218.008 71.4376 215.268 74.0708Z" fill="#4E3715"/>
<ellipse cx="167" cy="49.5" rx="6" ry="3.5" fill="#4E3715"/>
<path d="M134 98.0001C136.573 95.2651 145.389 102.166 155.934 108.243C166.479 114.321 176.909 118.652 174.336 121.387C171.764 124.122 158.772 123.551 148.227 117.473C137.682 111.396 131.428 100.735 134 98.0001Z" fill="#5F441C"/>
<defs>
<filter id="filter0_i_41_31" x="0.371094" y="25.6562" width="760.094" height="103.391" filterUnits="userSpaceOnUse" color-interpolation-filters="sRGB">
<feFlood flood-opacity="0" result="BackgroundImageFix"/>
<feBlend mode="normal" in="SourceGraphic" in2="BackgroundImageFix" result="shape"/>
<feColorMatrix in="SourceAlpha" type="matrix" values="0 0 0 0 0 0 0 0 0 0 0 0 0 0 0 0 0 0 127 0" result="hardAlpha"/>
<feOffset dy="4"/>
<feGaussianBlur stdDeviation="2"/>
<feComposite in2="hardAlpha" operator="arithmetic" k2="-1" k3="1"/>
<feColorMatrix type="matrix" values="0 0 0 0 0 0 0 0 0 0 0 0 0 0 0 0 0 0 0.25 0"/>
<feBlend mode="normal" in2="shape" result="effect1_innerShadow_41_31"/>
</filter>
</defs>
</svg>
