<svg width="900" height="900" viewBox="0 0 900 900" fill="none" xmlns="http://www.w3.org/2000/svg">
<circle cx="450" cy="450" r="450" fill="#E5BB7C"/>
<mask id="path-2-outside-1_70_13" maskUnits="userSpaceOnUse" x="63.3711" y="379.656" width="761" height="100" fill="black">
<rect fill="white" x="63.3711" y="379.656" width="761" height="100"/>
<path d="M145.41 476.344C133.965 476.344 123.457 474.312 113.887 470.25C111.895 472.242 109.414 473.551 106.445 474.176C103.516 474.84 99.5898 475.172 94.668 475.172C89.7852 475.172 85.0391 474.605 80.4297 473.473C75.8203 472.34 72.168 470.953 69.4727 469.312C66.7383 467.672 65.3711 466.07 65.3711 464.508C65.3711 463.609 65.7617 462.887 66.543 462.34C67.3242 461.793 68.2227 461.52 69.2383 461.52C72.832 461.52 75.4883 460.953 77.207 459.82C78.9648 458.648 80.6445 456.5 82.2461 453.375C83.8867 450.25 85.4688 446.656 86.9922 442.594C88.5156 438.492 89.9219 434.664 91.2109 431.109C92.5391 427.555 94.0234 423.961 95.6641 420.328C99.2969 412.398 103.848 407.125 109.316 404.508C111.934 403.258 115.352 402.301 119.57 401.637C123.789 400.934 127.09 400.582 129.473 400.582C131.895 400.582 133.457 400.621 134.16 400.699C134.902 400.738 135.645 400.855 136.387 401.051C137.871 401.441 138.613 402.262 138.613 403.512C138.613 404.371 138.438 405.172 138.086 405.914C137.773 406.617 136.895 408.141 135.449 410.484C134.004 412.828 132.09 417.73 129.707 425.191C139.238 424.605 146.523 422.633 151.562 419.273C156.602 415.875 159.121 411.539 159.121 406.266C159.121 399.117 153.066 395.055 140.957 394.078C138.496 393.883 134.902 393.785 130.176 393.785C125.449 393.785 120.195 394.352 114.414 395.484C108.633 396.578 104.102 397.789 100.82 399.117C97.5781 400.445 94.6484 401.676 92.0312 402.809C89.4141 403.902 87.7344 404.449 86.9922 404.449C84.9609 404.449 83.9453 403.785 83.9453 402.457C83.9453 401.09 85.2148 399.469 87.7539 397.594C90.293 395.719 93.7891 393.863 98.2422 392.027C102.734 390.191 107.695 388.492 113.125 386.93C125.391 383.414 138.066 381.656 151.152 381.656C164.238 381.656 174.16 383.707 180.918 387.809C187.715 391.871 191.113 397.262 191.113 403.98C191.113 410.699 187.734 416.285 180.977 420.738C174.258 425.191 165.02 427.652 153.262 428.121C160.801 428.199 167.734 430.016 174.062 433.57C177.109 435.25 179.59 437.457 181.504 440.191C183.418 442.926 184.375 446.09 184.375 449.684C184.375 453.277 183.613 456.656 182.09 459.82C180.605 462.945 178.613 465.523 176.113 467.555C173.652 469.586 170.703 471.266 167.266 472.594C160.977 475.094 153.691 476.344 145.41 476.344ZM128.066 430.348C127.324 432.809 125.859 437.789 123.672 445.289C121.484 452.75 119.961 457.75 119.102 460.289C118.242 462.789 117.793 464.078 117.754 464.156C119.004 464.312 120.996 464.391 123.73 464.391C126.504 464.391 129.59 464.02 132.988 463.277C136.426 462.496 139.492 461.324 142.188 459.762C144.922 458.199 147.051 456.09 148.574 453.434C150.137 450.777 150.918 447.555 150.918 443.766C150.918 439.977 148.711 436.832 144.297 434.332C139.883 431.832 134.473 430.504 128.066 430.348Z"/>
<path d="M204.59 470.074C197.246 465.66 193.574 458.961 193.574 449.977C193.574 445.289 194.531 440.895 196.445 436.793C198.398 432.652 201.055 429.078 204.414 426.07C207.812 423.062 211.758 420.484 216.25 418.336C225.234 414 235.527 411.832 247.129 411.832C269.941 411.832 282.266 419.059 284.102 433.512C286.836 434.41 289.648 434.859 292.539 434.859C295.469 434.859 297.91 434.645 299.863 434.215C301.816 433.785 303.652 433.141 305.371 432.281C307.129 431.422 308.379 430.992 309.121 430.992C310.605 430.992 311.348 431.715 311.348 433.16C311.348 434.605 310.195 436.109 307.891 437.672C303.555 440.641 297.812 442.125 290.664 442.125C287.969 442.125 285.781 441.988 284.102 441.715C282.852 451.559 277.773 459.742 268.867 466.266C264.609 469.391 259.375 471.852 253.164 473.648C246.992 475.445 240.586 476.344 233.945 476.344C227.344 476.344 221.68 475.816 216.953 474.762C212.227 473.746 208.105 472.184 204.59 470.074ZM225.859 455.133C225.859 462.359 228.496 465.973 233.77 465.973C237.129 465.973 240.254 464.137 243.145 460.465C246.074 456.793 248.34 452.242 249.941 446.812C251.582 441.383 252.402 435.855 252.402 430.23C252.402 424.566 250.43 421.734 246.484 421.734C243.047 421.734 239.707 423.355 236.465 426.598C233.262 429.84 230.684 434.059 228.73 439.254C226.816 444.41 225.859 449.703 225.859 455.133Z"/>
<path d="M325.059 469.43C313.652 473.297 306.367 475.23 303.203 475.23C300.078 475.23 297.539 474.586 295.586 473.297C293.672 471.969 292.715 470.328 292.715 468.375C292.715 466.891 295.273 459.039 300.391 444.82C310.078 417.75 314.922 400.27 314.922 392.379L314.863 390.152C314.863 388.199 316.758 387.223 320.547 387.223H335.84L347.617 387.047C348.633 387.047 349.395 387.359 349.902 387.984C350.41 388.57 350.664 389.234 350.664 389.977C350.664 393.609 347.07 404.977 339.883 424.078L339.941 424.02C343.34 420.152 347.441 417.164 352.246 415.055C357.09 412.906 362.305 411.832 367.891 411.832C384.18 411.832 392.324 419.449 392.324 434.684C392.324 440.543 390.879 446.188 387.988 451.617C385.098 457.047 381.172 461.773 376.211 465.797C389.023 464.664 399.043 462.125 406.27 458.18C407.324 457.594 408.242 457.301 409.023 457.301C410.547 457.301 411.309 457.926 411.309 459.176C411.309 460.387 410.625 461.5 409.258 462.516C404.141 466.07 396.25 469.215 385.586 471.949C374.922 474.684 363.477 476.07 351.25 476.109C349.297 476.266 347.148 476.344 344.805 476.344C342.461 476.344 339.219 475.719 335.078 474.469C330.977 473.258 327.637 471.578 325.059 469.43ZM351.484 426.715C344.141 426.715 338.008 432.34 333.086 443.59C330.82 448.746 329.688 452.926 329.688 456.129C329.688 459.332 330.215 461.539 331.27 462.75C332.363 463.961 334.473 464.566 337.598 464.566C340.762 464.566 344.16 463.121 347.793 460.23C351.465 457.301 354.414 453.629 356.641 449.215C358.867 444.801 359.98 440.836 359.98 437.32C359.98 433.766 359.199 431.109 357.637 429.352C356.074 427.594 354.023 426.715 351.484 426.715Z"/>
<path d="M446.113 461.461C453.457 461.461 459.59 455.836 464.512 444.586C466.777 439.43 467.91 435.25 467.91 432.047C467.91 428.844 467.363 426.637 466.27 425.426C465.215 424.215 463.105 423.609 459.941 423.609C456.816 423.609 453.418 425.074 449.746 428.004C446.113 430.895 443.184 434.547 440.957 438.961C438.73 443.375 437.617 447.359 437.617 450.914C437.617 454.43 438.398 457.066 439.961 458.824C441.523 460.582 443.574 461.461 446.113 461.461ZM476.582 411.832L503.418 413.062C504.434 413.062 505.195 413.375 505.703 414C506.211 414.586 506.465 415.25 506.465 415.992C506.465 418.844 505.273 423.395 502.891 429.645C500.547 435.855 498.184 442.027 495.801 448.16C493.457 454.254 492.285 458.297 492.285 460.289C492.285 462.242 492.578 463.492 493.164 464.039C493.789 464.586 494.961 464.859 496.68 464.859C498.398 464.859 501.523 464.039 506.055 462.398C510.625 460.719 513.711 459.449 515.312 458.59C516.953 457.73 518.203 457.301 519.062 457.301C520.586 457.301 521.348 457.984 521.348 459.352C521.348 462.242 515.488 466.031 503.77 470.719C499.824 472.32 495.059 473.648 489.473 474.703C483.926 475.797 478.281 476.344 472.539 476.344C462.969 476.344 457.207 473.297 455.254 467.203C449.16 473.297 440.957 476.344 430.645 476.344C423.574 476.344 417.598 474.645 412.715 471.246C407.402 467.535 404.746 461.695 404.746 453.727C404.746 445.328 407.227 437.594 412.188 430.523C417.617 422.672 424.883 417.262 433.984 414.293C439.023 412.652 444.434 411.832 450.215 411.832C459.082 411.832 465.977 414.02 470.898 418.395C470.938 418.16 470.957 417.789 470.957 417.281L470.898 414.762C470.898 412.809 472.793 411.832 476.582 411.832Z"/>
<path d="M628.75 457.301C630.508 457.301 631.387 458.102 631.387 459.703C631.387 460.836 630.566 462.008 628.926 463.219C624.551 466.422 618.008 469.41 609.297 472.184C600.625 474.957 593.047 476.344 586.562 476.344C580.078 476.344 575.293 475.66 572.207 474.293C569.16 472.965 567.051 470.602 565.879 467.203C563.613 469.508 560.352 471.617 556.094 473.531C551.836 475.406 547.324 476.344 542.559 476.344C537.832 476.344 533.965 475.914 530.957 475.055C527.949 474.234 525.215 472.965 522.754 471.246C520.293 469.527 518.34 467.184 516.895 464.215C515.488 461.207 514.785 457.711 514.785 453.727C514.785 449.742 515.391 445.777 516.602 441.832C517.812 437.887 519.668 434.117 522.168 430.523C524.707 426.891 527.734 423.688 531.25 420.914C534.766 418.141 539.023 415.934 544.023 414.293C549.062 412.652 554.473 411.832 560.254 411.832C569.746 411.832 577.637 414.195 583.926 418.922C586.113 405.016 587.207 395.934 587.207 391.676L587.148 389.977C587.148 388.023 589.043 387.047 592.832 387.047L619.082 388.277C620.02 388.277 620.762 388.57 621.309 389.156C621.855 389.703 622.129 390.328 622.129 391.031C622.129 397.125 618.906 409.625 612.461 428.531C606.016 447.398 602.793 457.75 602.793 459.586C602.793 461.422 603.047 462.73 603.555 463.512C604.102 464.293 605.215 464.684 606.895 464.684C608.574 464.684 611.465 463.98 615.566 462.574C619.668 461.168 622.754 459.938 624.824 458.883C626.895 457.828 628.203 457.301 628.75 457.301ZM556.152 461.461C563.496 461.461 569.629 455.836 574.551 444.586C577.363 439.195 578.77 434.43 578.77 430.289C578.77 428.023 578.223 426.285 577.129 425.074C576.074 423.863 573.945 423.258 570.742 423.258C567.578 423.258 564.102 424.742 560.312 427.711C556.523 430.68 553.457 434.41 551.113 438.902C548.809 443.355 547.656 447.359 547.656 450.914C547.656 454.43 548.438 457.066 550 458.824C551.562 460.582 553.613 461.461 556.152 461.461Z"/>
<path d="M719.453 457.301C720.82 457.301 721.504 457.945 721.504 459.234C721.504 460.484 720.566 461.656 718.691 462.75C716.855 463.805 714.57 464.957 711.836 466.207C709.102 467.418 705.332 468.863 700.527 470.543C689.473 474.41 676.992 476.344 663.086 476.344C636.68 476.344 623.477 468.219 623.477 451.969C623.477 444.039 625.977 437.008 630.977 430.875C636.016 424.703 642.754 419.996 651.191 416.754C659.629 413.473 668.828 411.832 678.789 411.832C688.75 411.832 696.035 413.375 700.645 416.461C705.293 419.547 707.617 423.785 707.617 429.176C707.617 434.723 705.391 439.254 700.938 442.77C696.523 446.285 690.645 448.902 683.301 450.621C675.918 452.34 667.461 453.551 657.93 454.254C658.555 460.309 662.891 464.078 670.938 465.562C673.008 465.914 675.195 466.09 677.5 466.09C686.641 466.09 699.824 463.336 717.051 457.828C718.105 457.477 718.906 457.301 719.453 457.301ZM657.988 447.809C664.785 445.934 670.156 443.062 674.102 439.195C678.047 435.328 680.02 430.66 680.02 425.191C680.02 423.746 679.551 422.594 678.613 421.734C677.676 420.875 676.25 420.445 674.336 420.445C672.461 420.445 670.488 421.266 668.418 422.906C666.387 424.547 664.668 426.695 663.262 429.352C660.293 434.859 658.535 441.012 657.988 447.809Z"/>
<path d="M771.719 422.203C773.398 425.602 774.688 428.668 775.586 431.402C781.914 425.191 787.402 420.289 792.051 416.695C796.738 413.062 800.508 411.246 803.359 411.246C805.391 411.246 807.188 412.887 808.75 416.168C810.352 419.41 811.152 423.141 811.152 427.359C811.152 428.141 810.84 429.02 810.215 429.996C809.629 430.934 808.75 431.539 807.578 431.812C806.406 432.047 803.945 432.164 800.195 432.164C796.445 432.164 792.949 432.691 789.707 433.746C786.504 434.762 782.871 436.812 778.809 439.898C782.988 450.992 786.582 458.395 789.59 462.105C791.113 464.059 793.125 465.035 795.625 465.035C798.125 465.035 801.387 464.371 805.41 463.043C809.434 461.715 812.5 460.426 814.609 459.176C816.719 457.926 818.184 457.301 819.004 457.301C820.645 457.301 821.465 458.023 821.465 459.469C821.465 460.445 820.625 461.676 818.945 463.16C813.281 468.121 807.012 471.676 800.137 473.824C793.262 475.973 785.586 477.047 777.109 477.047C764.688 477.047 756.406 474.43 752.266 469.195C749.922 466.305 747.695 462.379 745.586 457.418C739.414 463.277 733.926 467.906 729.121 471.305C724.316 474.703 720.215 476.402 716.816 476.402C714.316 476.402 712.207 474.801 710.488 471.598C708.809 468.355 707.969 465.016 707.969 461.578C707.969 458.141 708.848 456.344 710.605 456.188C711.621 456.07 713.457 455.973 716.113 455.895C718.809 455.816 721.562 455.68 724.375 455.484C731.211 455.016 737.207 452.828 742.363 448.922C741.973 447.75 741.328 445.797 740.43 443.062C739.57 440.328 738.906 438.297 738.438 436.969C735.977 430.016 733.691 425.992 731.582 424.898C730.566 424.352 729.102 424.078 727.188 424.078C725.273 424.078 723.398 424.254 721.562 424.605C719.727 424.957 718.594 425.133 718.164 425.133C716.68 425.133 715.938 424.43 715.938 423.023C715.938 421.617 717.5 420.055 720.625 418.336C723.75 416.578 727.988 415.055 733.34 413.766C738.73 412.477 743.359 411.832 747.227 411.832C751.094 411.832 753.945 411.93 755.781 412.125C757.617 412.281 759.258 412.594 760.703 413.062C762.148 413.492 763.418 413.961 764.512 414.469C765.605 414.938 766.602 415.621 767.5 416.52C768.398 417.379 769.16 418.219 769.785 419.039C770.41 419.82 771.055 420.875 771.719 422.203Z"/>
</mask>
<g filter="url(#filter0_i_70_13)">
<path d="M145.41 476.344C133.965 476.344 123.457 474.312 113.887 470.25C111.895 472.242 109.414 473.551 106.445 474.176C103.516 474.84 99.5898 475.172 94.668 475.172C89.7852 475.172 85.0391 474.605 80.4297 473.473C75.8203 472.34 72.168 470.953 69.4727 469.312C66.7383 467.672 65.3711 466.07 65.3711 464.508C65.3711 463.609 65.7617 462.887 66.543 462.34C67.3242 461.793 68.2227 461.52 69.2383 461.52C72.832 461.52 75.4883 460.953 77.207 459.82C78.9648 458.648 80.6445 456.5 82.2461 453.375C83.8867 450.25 85.4688 446.656 86.9922 442.594C88.5156 438.492 89.9219 434.664 91.2109 431.109C92.5391 427.555 94.0234 423.961 95.6641 420.328C99.2969 412.398 103.848 407.125 109.316 404.508C111.934 403.258 115.352 402.301 119.57 401.637C123.789 400.934 127.09 400.582 129.473 400.582C131.895 400.582 133.457 400.621 134.16 400.699C134.902 400.738 135.645 400.855 136.387 401.051C137.871 401.441 138.613 402.262 138.613 403.512C138.613 404.371 138.438 405.172 138.086 405.914C137.773 406.617 136.895 408.141 135.449 410.484C134.004 412.828 132.09 417.73 129.707 425.191C139.238 424.605 146.523 422.633 151.562 419.273C156.602 415.875 159.121 411.539 159.121 406.266C159.121 399.117 153.066 395.055 140.957 394.078C138.496 393.883 134.902 393.785 130.176 393.785C125.449 393.785 120.195 394.352 114.414 395.484C108.633 396.578 104.102 397.789 100.82 399.117C97.5781 400.445 94.6484 401.676 92.0312 402.809C89.4141 403.902 87.7344 404.449 86.9922 404.449C84.9609 404.449 83.9453 403.785 83.9453 402.457C83.9453 401.09 85.2148 399.469 87.7539 397.594C90.293 395.719 93.7891 393.863 98.2422 392.027C102.734 390.191 107.695 388.492 113.125 386.93C125.391 383.414 138.066 381.656 151.152 381.656C164.238 381.656 174.16 383.707 180.918 387.809C187.715 391.871 191.113 397.262 191.113 403.98C191.113 410.699 187.734 416.285 180.977 420.738C174.258 425.191 165.02 427.652 153.262 428.121C160.801 428.199 167.734 430.016 174.062 433.57C177.109 435.25 179.59 437.457 181.504 440.191C183.418 442.926 184.375 446.09 184.375 449.684C184.375 453.277 183.613 456.656 182.09 459.82C180.605 462.945 178.613 465.523 176.113 467.555C173.652 469.586 170.703 471.266 167.266 472.594C160.977 475.094 153.691 476.344 145.41 476.344ZM128.066 430.348C127.324 432.809 125.859 437.789 123.672 445.289C121.484 452.75 119.961 457.75 119.102 460.289C118.242 462.789 117.793 464.078 117.754 464.156C119.004 464.312 120.996 464.391 123.73 464.391C126.504 464.391 129.59 464.02 132.988 463.277C136.426 462.496 139.492 461.324 142.188 459.762C144.922 458.199 147.051 456.09 148.574 453.434C150.137 450.777 150.918 447.555 150.918 443.766C150.918 439.977 148.711 436.832 144.297 434.332C139.883 431.832 134.473 430.504 128.066 430.348Z" fill="#5B4E3A"/>
<path d="M204.59 470.074C197.246 465.66 193.574 458.961 193.574 449.977C193.574 445.289 194.531 440.895 196.445 436.793C198.398 432.652 201.055 429.078 204.414 426.07C207.812 423.062 211.758 420.484 216.25 418.336C225.234 414 235.527 411.832 247.129 411.832C269.941 411.832 282.266 419.059 284.102 433.512C286.836 434.41 289.648 434.859 292.539 434.859C295.469 434.859 297.91 434.645 299.863 434.215C301.816 433.785 303.652 433.141 305.371 432.281C307.129 431.422 308.379 430.992 309.121 430.992C310.605 430.992 311.348 431.715 311.348 433.16C311.348 434.605 310.195 436.109 307.891 437.672C303.555 440.641 297.812 442.125 290.664 442.125C287.969 442.125 285.781 441.988 284.102 441.715C282.852 451.559 277.773 459.742 268.867 466.266C264.609 469.391 259.375 471.852 253.164 473.648C246.992 475.445 240.586 476.344 233.945 476.344C227.344 476.344 221.68 475.816 216.953 474.762C212.227 473.746 208.105 472.184 204.59 470.074ZM225.859 455.133C225.859 462.359 228.496 465.973 233.77 465.973C237.129 465.973 240.254 464.137 243.145 460.465C246.074 456.793 248.34 452.242 249.941 446.812C251.582 441.383 252.402 435.855 252.402 430.23C252.402 424.566 250.43 421.734 246.484 421.734C243.047 421.734 239.707 423.355 236.465 426.598C233.262 429.84 230.684 434.059 228.73 439.254C226.816 444.41 225.859 449.703 225.859 455.133Z" fill="#5B4E3A"/>
<path d="M325.059 469.43C313.652 473.297 306.367 475.23 303.203 475.23C300.078 475.23 297.539 474.586 295.586 473.297C293.672 471.969 292.715 470.328 292.715 468.375C292.715 466.891 295.273 459.039 300.391 444.82C310.078 417.75 314.922 400.27 314.922 392.379L314.863 390.152C314.863 388.199 316.758 387.223 320.547 387.223H335.84L347.617 387.047C348.633 387.047 349.395 387.359 349.902 387.984C350.41 388.57 350.664 389.234 350.664 389.977C350.664 393.609 347.07 404.977 339.883 424.078L339.941 424.02C343.34 420.152 347.441 417.164 352.246 415.055C357.09 412.906 362.305 411.832 367.891 411.832C384.18 411.832 392.324 419.449 392.324 434.684C392.324 440.543 390.879 446.188 387.988 451.617C385.098 457.047 381.172 461.773 376.211 465.797C389.023 464.664 399.043 462.125 406.27 458.18C407.324 457.594 408.242 457.301 409.023 457.301C410.547 457.301 411.309 457.926 411.309 459.176C411.309 460.387 410.625 461.5 409.258 462.516C404.141 466.07 396.25 469.215 385.586 471.949C374.922 474.684 363.477 476.07 351.25 476.109C349.297 476.266 347.148 476.344 344.805 476.344C342.461 476.344 339.219 475.719 335.078 474.469C330.977 473.258 327.637 471.578 325.059 469.43ZM351.484 426.715C344.141 426.715 338.008 432.34 333.086 443.59C330.82 448.746 329.688 452.926 329.688 456.129C329.688 459.332 330.215 461.539 331.27 462.75C332.363 463.961 334.473 464.566 337.598 464.566C340.762 464.566 344.16 463.121 347.793 460.23C351.465 457.301 354.414 453.629 356.641 449.215C358.867 444.801 359.98 440.836 359.98 437.32C359.98 433.766 359.199 431.109 357.637 429.352C356.074 427.594 354.023 426.715 351.484 426.715Z" fill="#5B4E3A"/>
<path d="M446.113 461.461C453.457 461.461 459.59 455.836 464.512 444.586C466.777 439.43 467.91 435.25 467.91 432.047C467.91 428.844 467.363 426.637 466.27 425.426C465.215 424.215 463.105 423.609 459.941 423.609C456.816 423.609 453.418 425.074 449.746 428.004C446.113 430.895 443.184 434.547 440.957 438.961C438.73 443.375 437.617 447.359 437.617 450.914C437.617 454.43 438.398 457.066 439.961 458.824C441.523 460.582 443.574 461.461 446.113 461.461ZM476.582 411.832L503.418 413.062C504.434 413.062 505.195 413.375 505.703 414C506.211 414.586 506.465 415.25 506.465 415.992C506.465 418.844 505.273 423.395 502.891 429.645C500.547 435.855 498.184 442.027 495.801 448.16C493.457 454.254 492.285 458.297 492.285 460.289C492.285 462.242 492.578 463.492 493.164 464.039C493.789 464.586 494.961 464.859 496.68 464.859C498.398 464.859 501.523 464.039 506.055 462.398C510.625 460.719 513.711 459.449 515.312 458.59C516.953 457.73 518.203 457.301 519.062 457.301C520.586 457.301 521.348 457.984 521.348 459.352C521.348 462.242 515.488 466.031 503.77 470.719C499.824 472.32 495.059 473.648 489.473 474.703C483.926 475.797 478.281 476.344 472.539 476.344C462.969 476.344 457.207 473.297 455.254 467.203C449.16 473.297 440.957 476.344 430.645 476.344C423.574 476.344 417.598 474.645 412.715 471.246C407.402 467.535 404.746 461.695 404.746 453.727C404.746 445.328 407.227 437.594 412.188 430.523C417.617 422.672 424.883 417.262 433.984 414.293C439.023 412.652 444.434 411.832 450.215 411.832C459.082 411.832 465.977 414.02 470.898 418.395C470.938 418.16 470.957 417.789 470.957 417.281L470.898 414.762C470.898 412.809 472.793 411.832 476.582 411.832Z" fill="#5B4E3A"/>
<path d="M628.75 457.301C630.508 457.301 631.387 458.102 631.387 459.703C631.387 460.836 630.566 462.008 628.926 463.219C624.551 466.422 618.008 469.41 609.297 472.184C600.625 474.957 593.047 476.344 586.562 476.344C580.078 476.344 575.293 475.66 572.207 474.293C569.16 472.965 567.051 470.602 565.879 467.203C563.613 469.508 560.352 471.617 556.094 473.531C551.836 475.406 547.324 476.344 542.559 476.344C537.832 476.344 533.965 475.914 530.957 475.055C527.949 474.234 525.215 472.965 522.754 471.246C520.293 469.527 518.34 467.184 516.895 464.215C515.488 461.207 514.785 457.711 514.785 453.727C514.785 449.742 515.391 445.777 516.602 441.832C517.812 437.887 519.668 434.117 522.168 430.523C524.707 426.891 527.734 423.688 531.25 420.914C534.766 418.141 539.023 415.934 544.023 414.293C549.062 412.652 554.473 411.832 560.254 411.832C569.746 411.832 577.637 414.195 583.926 418.922C586.113 405.016 587.207 395.934 587.207 391.676L587.148 389.977C587.148 388.023 589.043 387.047 592.832 387.047L619.082 388.277C620.02 388.277 620.762 388.57 621.309 389.156C621.855 389.703 622.129 390.328 622.129 391.031C622.129 397.125 618.906 409.625 612.461 428.531C606.016 447.398 602.793 457.75 602.793 459.586C602.793 461.422 603.047 462.73 603.555 463.512C604.102 464.293 605.215 464.684 606.895 464.684C608.574 464.684 611.465 463.98 615.566 462.574C619.668 461.168 622.754 459.938 624.824 458.883C626.895 457.828 628.203 457.301 628.75 457.301ZM556.152 461.461C563.496 461.461 569.629 455.836 574.551 444.586C577.363 439.195 578.77 434.43 578.77 430.289C578.77 428.023 578.223 426.285 577.129 425.074C576.074 423.863 573.945 423.258 570.742 423.258C567.578 423.258 564.102 424.742 560.312 427.711C556.523 430.68 553.457 434.41 551.113 438.902C548.809 443.355 547.656 447.359 547.656 450.914C547.656 454.43 548.438 457.066 550 458.824C551.562 460.582 553.613 461.461 556.152 461.461Z" fill="#5B4E3A"/>
<path d="M719.453 457.301C720.82 457.301 721.504 457.945 721.504 459.234C721.504 460.484 720.566 461.656 718.691 462.75C716.855 463.805 714.57 464.957 711.836 466.207C709.102 467.418 705.332 468.863 700.527 470.543C689.473 474.41 676.992 476.344 663.086 476.344C636.68 476.344 623.477 468.219 623.477 451.969C623.477 444.039 625.977 437.008 630.977 430.875C636.016 424.703 642.754 419.996 651.191 416.754C659.629 413.473 668.828 411.832 678.789 411.832C688.75 411.832 696.035 413.375 700.645 416.461C705.293 419.547 707.617 423.785 707.617 429.176C707.617 434.723 705.391 439.254 700.938 442.77C696.523 446.285 690.645 448.902 683.301 450.621C675.918 452.34 667.461 453.551 657.93 454.254C658.555 460.309 662.891 464.078 670.938 465.562C673.008 465.914 675.195 466.09 677.5 466.09C686.641 466.09 699.824 463.336 717.051 457.828C718.105 457.477 718.906 457.301 719.453 457.301ZM657.988 447.809C664.785 445.934 670.156 443.062 674.102 439.195C678.047 435.328 680.02 430.66 680.02 425.191C680.02 423.746 679.551 422.594 678.613 421.734C677.676 420.875 676.25 420.445 674.336 420.445C672.461 420.445 670.488 421.266 668.418 422.906C666.387 424.547 664.668 426.695 663.262 429.352C660.293 434.859 658.535 441.012 657.988 447.809Z" fill="#5B4E3A"/>
<path d="M771.719 422.203C773.398 425.602 774.688 428.668 775.586 431.402C781.914 425.191 787.402 420.289 792.051 416.695C796.738 413.062 800.508 411.246 803.359 411.246C805.391 411.246 807.188 412.887 808.75 416.168C810.352 419.41 811.152 423.141 811.152 427.359C811.152 428.141 810.84 429.02 810.215 429.996C809.629 430.934 808.75 431.539 807.578 431.812C806.406 432.047 803.945 432.164 800.195 432.164C796.445 432.164 792.949 432.691 789.707 433.746C786.504 434.762 782.871 436.812 778.809 439.898C782.988 450.992 786.582 458.395 789.59 462.105C791.113 464.059 793.125 465.035 795.625 465.035C798.125 465.035 801.387 464.371 805.41 463.043C809.434 461.715 812.5 460.426 814.609 459.176C816.719 457.926 818.184 457.301 819.004 457.301C820.645 457.301 821.465 458.023 821.465 459.469C821.465 460.445 820.625 461.676 818.945 463.16C813.281 468.121 807.012 471.676 800.137 473.824C793.262 475.973 785.586 477.047 777.109 477.047C764.688 477.047 756.406 474.43 752.266 469.195C749.922 466.305 747.695 462.379 745.586 457.418C739.414 463.277 733.926 467.906 729.121 471.305C724.316 474.703 720.215 476.402 716.816 476.402C714.316 476.402 712.207 474.801 710.488 471.598C708.809 468.355 707.969 465.016 707.969 461.578C707.969 458.141 708.848 456.344 710.605 456.188C711.621 456.07 713.457 455.973 716.113 455.895C718.809 455.816 721.562 455.68 724.375 455.484C731.211 455.016 737.207 452.828 742.363 448.922C741.973 447.75 741.328 445.797 740.43 443.062C739.57 440.328 738.906 438.297 738.438 436.969C735.977 430.016 733.691 425.992 731.582 424.898C730.566 424.352 729.102 424.078 727.188 424.078C725.273 424.078 723.398 424.254 721.562 424.605C719.727 424.957 718.594 425.133 718.164 425.133C716.68 425.133 715.938 424.43 715.938 423.023C715.938 421.617 717.5 420.055 720.625 418.336C723.75 416.578 727.988 415.055 733.34 413.766C738.73 412.477 743.359 411.832 747.227 411.832C751.094 411.832 753.945 411.93 755.781 412.125C757.617 412.281 759.258 412.594 760.703 413.062C762.148 413.492 763.418 413.961 764.512 414.469C765.605 414.938 766.602 415.621 767.5 416.52C768.398 417.379 769.16 418.219 769.785 419.039C770.41 419.82 771.055 420.875 771.719 422.203Z" fill="#5B4E3A"/>
</g>
<path d="M145.41 476.344C133.965 476.344 123.457 474.312 113.887 470.25C111.895 472.242 109.414 473.551 106.445 474.176C103.516 474.84 99.5898 475.172 94.668 475.172C89.7852 475.172 85.0391 474.605 80.4297 473.473C75.8203 472.34 72.168 470.953 69.4727 469.312C66.7383 467.672 65.3711 466.07 65.3711 464.508C65.3711 463.609 65.7617 462.887 66.543 462.34C67.3242 461.793 68.2227 461.52 69.2383 461.52C72.832 461.52 75.4883 460.953 77.207 459.82C78.9648 458.648 80.6445 456.5 82.2461 453.375C83.8867 450.25 85.4688 446.656 86.9922 442.594C88.5156 438.492 89.9219 434.664 91.2109 431.109C92.5391 427.555 94.0234 423.961 95.6641 420.328C99.2969 412.398 103.848 407.125 109.316 404.508C111.934 403.258 115.352 402.301 119.57 401.637C123.789 400.934 127.09 400.582 129.473 400.582C131.895 400.582 133.457 400.621 134.16 400.699C134.902 400.738 135.645 400.855 136.387 401.051C137.871 401.441 138.613 402.262 138.613 403.512C138.613 404.371 138.438 405.172 138.086 405.914C137.773 406.617 136.895 408.141 135.449 410.484C134.004 412.828 132.09 417.73 129.707 425.191C139.238 424.605 146.523 422.633 151.562 419.273C156.602 415.875 159.121 411.539 159.121 406.266C159.121 399.117 153.066 395.055 140.957 394.078C138.496 393.883 134.902 393.785 130.176 393.785C125.449 393.785 120.195 394.352 114.414 395.484C108.633 396.578 104.102 397.789 100.82 399.117C97.5781 400.445 94.6484 401.676 92.0312 402.809C89.4141 403.902 87.7344 404.449 86.9922 404.449C84.9609 404.449 83.9453 403.785 83.9453 402.457C83.9453 401.09 85.2148 399.469 87.7539 397.594C90.293 395.719 93.7891 393.863 98.2422 392.027C102.734 390.191 107.695 388.492 113.125 386.93C125.391 383.414 138.066 381.656 151.152 381.656C164.238 381.656 174.16 383.707 180.918 387.809C187.715 391.871 191.113 397.262 191.113 403.98C191.113 410.699 187.734 416.285 180.977 420.738C174.258 425.191 165.02 427.652 153.262 428.121C160.801 428.199 167.734 430.016 174.062 433.57C177.109 435.25 179.59 437.457 181.504 440.191C183.418 442.926 184.375 446.09 184.375 449.684C184.375 453.277 183.613 456.656 182.09 459.82C180.605 462.945 178.613 465.523 176.113 467.555C173.652 469.586 170.703 471.266 167.266 472.594C160.977 475.094 153.691 476.344 145.41 476.344ZM128.066 430.348C127.324 432.809 125.859 437.789 123.672 445.289C121.484 452.75 119.961 457.75 119.102 460.289C118.242 462.789 117.793 464.078 117.754 464.156C119.004 464.312 120.996 464.391 123.73 464.391C126.504 464.391 129.59 464.02 132.988 463.277C136.426 462.496 139.492 461.324 142.188 459.762C144.922 458.199 147.051 456.09 148.574 453.434C150.137 450.777 150.918 447.555 150.918 443.766C150.918 439.977 148.711 436.832 144.297 434.332C139.883 431.832 134.473 430.504 128.066 430.348Z" stroke="black" stroke-width="4" mask="url(#path-2-outside-1_70_13)"/>
<path d="M204.59 470.074C197.246 465.66 193.574 458.961 193.574 449.977C193.574 445.289 194.531 440.895 196.445 436.793C198.398 432.652 201.055 429.078 204.414 426.07C207.812 423.062 211.758 420.484 216.25 418.336C225.234 414 235.527 411.832 247.129 411.832C269.941 411.832 282.266 419.059 284.102 433.512C286.836 434.41 289.648 434.859 292.539 434.859C295.469 434.859 297.91 434.645 299.863 434.215C301.816 433.785 303.652 433.141 305.371 432.281C307.129 431.422 308.379 430.992 309.121 430.992C310.605 430.992 311.348 431.715 311.348 433.16C311.348 434.605 310.195 436.109 307.891 437.672C303.555 440.641 297.812 442.125 290.664 442.125C287.969 442.125 285.781 441.988 284.102 441.715C282.852 451.559 277.773 459.742 268.867 466.266C264.609 469.391 259.375 471.852 253.164 473.648C246.992 475.445 240.586 476.344 233.945 476.344C227.344 476.344 221.68 475.816 216.953 474.762C212.227 473.746 208.105 472.184 204.59 470.074ZM225.859 455.133C225.859 462.359 228.496 465.973 233.77 465.973C237.129 465.973 240.254 464.137 243.145 460.465C246.074 456.793 248.34 452.242 249.941 446.812C251.582 441.383 252.402 435.855 252.402 430.23C252.402 424.566 250.43 421.734 246.484 421.734C243.047 421.734 239.707 423.355 236.465 426.598C233.262 429.84 230.684 434.059 228.73 439.254C226.816 444.41 225.859 449.703 225.859 455.133Z" stroke="black" stroke-width="4" mask="url(#path-2-outside-1_70_13)"/>
<path d="M325.059 469.43C313.652 473.297 306.367 475.23 303.203 475.23C300.078 475.23 297.539 474.586 295.586 473.297C293.672 471.969 292.715 470.328 292.715 468.375C292.715 466.891 295.273 459.039 300.391 444.82C310.078 417.75 314.922 400.27 314.922 392.379L314.863 390.152C314.863 388.199 316.758 387.223 320.547 387.223H335.84L347.617 387.047C348.633 387.047 349.395 387.359 349.902 387.984C350.41 388.57 350.664 389.234 350.664 389.977C350.664 393.609 347.07 404.977 339.883 424.078L339.941 424.02C343.34 420.152 347.441 417.164 352.246 415.055C357.09 412.906 362.305 411.832 367.891 411.832C384.18 411.832 392.324 419.449 392.324 434.684C392.324 440.543 390.879 446.188 387.988 451.617C385.098 457.047 381.172 461.773 376.211 465.797C389.023 464.664 399.043 462.125 406.27 458.18C407.324 457.594 408.242 457.301 409.023 457.301C410.547 457.301 411.309 457.926 411.309 459.176C411.309 460.387 410.625 461.5 409.258 462.516C404.141 466.07 396.25 469.215 385.586 471.949C374.922 474.684 363.477 476.07 351.25 476.109C349.297 476.266 347.148 476.344 344.805 476.344C342.461 476.344 339.219 475.719 335.078 474.469C330.977 473.258 327.637 471.578 325.059 469.43ZM351.484 426.715C344.141 426.715 338.008 432.34 333.086 443.59C330.82 448.746 329.688 452.926 329.688 456.129C329.688 459.332 330.215 461.539 331.27 462.75C332.363 463.961 334.473 464.566 337.598 464.566C340.762 464.566 344.16 463.121 347.793 460.23C351.465 457.301 354.414 453.629 356.641 449.215C358.867 444.801 359.98 440.836 359.98 437.32C359.98 433.766 359.199 431.109 357.637 429.352C356.074 427.594 354.023 426.715 351.484 426.715Z" stroke="black" stroke-width="4" mask="url(#path-2-outside-1_70_13)"/>
<path d="M446.113 461.461C453.457 461.461 459.59 455.836 464.512 444.586C466.777 439.43 467.91 435.25 467.91 432.047C467.91 428.844 467.363 426.637 466.27 425.426C465.215 424.215 463.105 423.609 459.941 423.609C456.816 423.609 453.418 425.074 449.746 428.004C446.113 430.895 443.184 434.547 440.957 438.961C438.73 443.375 437.617 447.359 437.617 450.914C437.617 454.43 438.398 457.066 439.961 458.824C441.523 460.582 443.574 461.461 446.113 461.461ZM476.582 411.832L503.418 413.062C504.434 413.062 505.195 413.375 505.703 414C506.211 414.586 506.465 415.25 506.465 415.992C506.465 418.844 505.273 423.395 502.891 429.645C500.547 435.855 498.184 442.027 495.801 448.16C493.457 454.254 492.285 458.297 492.285 460.289C492.285 462.242 492.578 463.492 493.164 464.039C493.789 464.586 494.961 464.859 496.68 464.859C498.398 464.859 501.523 464.039 506.055 462.398C510.625 460.719 513.711 459.449 515.312 458.59C516.953 457.73 518.203 457.301 519.062 457.301C520.586 457.301 521.348 457.984 521.348 459.352C521.348 462.242 515.488 466.031 503.77 470.719C499.824 472.32 495.059 473.648 489.473 474.703C483.926 475.797 478.281 476.344 472.539 476.344C462.969 476.344 457.207 473.297 455.254 467.203C449.16 473.297 440.957 476.344 430.645 476.344C423.574 476.344 417.598 474.645 412.715 471.246C407.402 467.535 404.746 461.695 404.746 453.727C404.746 445.328 407.227 437.594 412.188 430.523C417.617 422.672 424.883 417.262 433.984 414.293C439.023 412.652 444.434 411.832 450.215 411.832C459.082 411.832 465.977 414.02 470.898 418.395C470.938 418.16 470.957 417.789 470.957 417.281L470.898 414.762C470.898 412.809 472.793 411.832 476.582 411.832Z" stroke="black" stroke-width="4" mask="url(#path-2-outside-1_70_13)"/>
<path d="M628.75 457.301C630.508 457.301 631.387 458.102 631.387 459.703C631.387 460.836 630.566 462.008 628.926 463.219C624.551 466.422 618.008 469.41 609.297 472.184C600.625 474.957 593.047 476.344 586.562 476.344C580.078 476.344 575.293 475.66 572.207 474.293C569.16 472.965 567.051 470.602 565.879 467.203C563.613 469.508 560.352 471.617 556.094 473.531C551.836 475.406 547.324 476.344 542.559 476.344C537.832 476.344 533.965 475.914 530.957 475.055C527.949 474.234 525.215 472.965 522.754 471.246C520.293 469.527 518.34 467.184 516.895 464.215C515.488 461.207 514.785 457.711 514.785 453.727C514.785 449.742 515.391 445.777 516.602 441.832C517.812 437.887 519.668 434.117 522.168 430.523C524.707 426.891 527.734 423.688 531.25 420.914C534.766 418.141 539.023 415.934 544.023 414.293C549.062 412.652 554.473 411.832 560.254 411.832C569.746 411.832 577.637 414.195 583.926 418.922C586.113 405.016 587.207 395.934 587.207 391.676L587.148 389.977C587.148 388.023 589.043 387.047 592.832 387.047L619.082 388.277C620.02 388.277 620.762 388.57 621.309 389.156C621.855 389.703 622.129 390.328 622.129 391.031C622.129 397.125 618.906 409.625 612.461 428.531C606.016 447.398 602.793 457.75 602.793 459.586C602.793 461.422 603.047 462.73 603.555 463.512C604.102 464.293 605.215 464.684 606.895 464.684C608.574 464.684 611.465 463.98 615.566 462.574C619.668 461.168 622.754 459.938 624.824 458.883C626.895 457.828 628.203 457.301 628.75 457.301ZM556.152 461.461C563.496 461.461 569.629 455.836 574.551 444.586C577.363 439.195 578.77 434.43 578.77 430.289C578.77 428.023 578.223 426.285 577.129 425.074C576.074 423.863 573.945 423.258 570.742 423.258C567.578 423.258 564.102 424.742 560.312 427.711C556.523 430.68 553.457 434.41 551.113 438.902C548.809 443.355 547.656 447.359 547.656 450.914C547.656 454.43 548.438 457.066 550 458.824C551.562 460.582 553.613 461.461 556.152 461.461Z" stroke="black" stroke-width="4" mask="url(#path-2-outside-1_70_13)"/>
<path d="M719.453 457.301C720.82 457.301 721.504 457.945 721.504 459.234C721.504 460.484 720.566 461.656 718.691 462.75C716.855 463.805 714.57 464.957 711.836 466.207C709.102 467.418 705.332 468.863 700.527 470.543C689.473 474.41 676.992 476.344 663.086 476.344C636.68 476.344 623.477 468.219 623.477 451.969C623.477 444.039 625.977 437.008 630.977 430.875C636.016 424.703 642.754 419.996 651.191 416.754C659.629 413.473 668.828 411.832 678.789 411.832C688.75 411.832 696.035 413.375 700.645 416.461C705.293 419.547 707.617 423.785 707.617 429.176C707.617 434.723 705.391 439.254 700.938 442.77C696.523 446.285 690.645 448.902 683.301 450.621C675.918 452.34 667.461 453.551 657.93 454.254C658.555 460.309 662.891 464.078 670.938 465.562C673.008 465.914 675.195 466.09 677.5 466.09C686.641 466.09 699.824 463.336 717.051 457.828C718.105 457.477 718.906 457.301 719.453 457.301ZM657.988 447.809C664.785 445.934 670.156 443.062 674.102 439.195C678.047 435.328 680.02 430.66 680.02 425.191C680.02 423.746 679.551 422.594 678.613 421.734C677.676 420.875 676.25 420.445 674.336 420.445C672.461 420.445 670.488 421.266 668.418 422.906C666.387 424.547 664.668 426.695 663.262 429.352C660.293 434.859 658.535 441.012 657.988 447.809Z" stroke="black" stroke-width="4" mask="url(#path-2-outside-1_70_13)"/>
<path d="M771.719 422.203C773.398 425.602 774.688 428.668 775.586 431.402C781.914 425.191 787.402 420.289 792.051 416.695C796.738 413.062 800.508 411.246 803.359 411.246C805.391 411.246 807.188 412.887 808.75 416.168C810.352 419.41 811.152 423.141 811.152 427.359C811.152 428.141 810.84 429.02 810.215 429.996C809.629 430.934 808.75 431.539 807.578 431.812C806.406 432.047 803.945 432.164 800.195 432.164C796.445 432.164 792.949 432.691 789.707 433.746C786.504 434.762 782.871 436.812 778.809 439.898C782.988 450.992 786.582 458.395 789.59 462.105C791.113 464.059 793.125 465.035 795.625 465.035C798.125 465.035 801.387 464.371 805.41 463.043C809.434 461.715 812.5 460.426 814.609 459.176C816.719 457.926 818.184 457.301 819.004 457.301C820.645 457.301 821.465 458.023 821.465 459.469C821.465 460.445 820.625 461.676 818.945 463.16C813.281 468.121 807.012 471.676 800.137 473.824C793.262 475.973 785.586 477.047 777.109 477.047C764.688 477.047 756.406 474.43 752.266 469.195C749.922 466.305 747.695 462.379 745.586 457.418C739.414 463.277 733.926 467.906 729.121 471.305C724.316 474.703 720.215 476.402 716.816 476.402C714.316 476.402 712.207 474.801 710.488 471.598C708.809 468.355 707.969 465.016 707.969 461.578C707.969 458.141 708.848 456.344 710.605 456.188C711.621 456.07 713.457 455.973 716.113 455.895C718.809 455.816 721.562 455.68 724.375 455.484C731.211 455.016 737.207 452.828 742.363 448.922C741.973 447.75 741.328 445.797 740.43 443.062C739.57 440.328 738.906 438.297 738.438 436.969C735.977 430.016 733.691 425.992 731.582 424.898C730.566 424.352 729.102 424.078 727.188 424.078C725.273 424.078 723.398 424.254 721.562 424.605C719.727 424.957 718.594 425.133 718.164 425.133C716.68 425.133 715.938 424.43 715.938 423.023C715.938 421.617 717.5 420.055 720.625 418.336C723.75 416.578 727.988 415.055 733.34 413.766C738.73 412.477 743.359 411.832 747.227 411.832C751.094 411.832 753.945 411.93 755.781 412.125C757.617 412.281 759.258 412.594 760.703 413.062C762.148 413.492 763.418 413.961 764.512 414.469C765.605 414.938 766.602 415.621 767.5 416.52C768.398 417.379 769.16 418.219 769.785 419.039C770.41 419.82 771.055 420.875 771.719 422.203Z" stroke="black" stroke-width="4" mask="url(#path-2-outside-1_70_13)"/>
<path d="M355.913 886.164L298.288 861.68L395.345 635.702L452.848 658.013L355.913 886.164Z" fill="#262626" stroke="black" stroke-width="5"/>
<path d="M422.5 619.5C440.316 619.5 454.5 633.07 454.5 649.5C454.5 665.93 440.316 679.5 422.5 679.5C404.684 679.5 390.5 665.93 390.5 649.5C390.5 633.07 404.684 619.5 422.5 619.5Z" fill="#605447" stroke="black" stroke-width="5"/>
<path d="M237.5 397.5C262.482 397.5 282.5 416.654 282.5 440C282.5 463.346 262.482 482.5 237.5 482.5C212.518 482.5 192.5 463.346 192.5 440C192.5 416.654 212.518 397.5 237.5 397.5Z" fill="#322108" stroke="black" stroke-width="5"/>
<path d="M278.268 428.071C275.527 430.704 267.153 423.474 257 417C246.847 410.526 236.701 405.801 239.441 403.168C242.182 400.534 255.122 401.602 265.275 408.076C275.428 414.55 281.008 425.438 278.268 428.071Z" fill="#4E3715"/>
<ellipse cx="230" cy="403.5" rx="6" ry="3.5" fill="#4E3715"/>
<path d="M197 452C199.573 449.265 208.389 456.166 218.934 462.243C229.479 468.321 239.909 472.652 237.336 475.387C234.764 478.122 221.772 477.551 211.227 471.473C200.682 465.396 194.428 454.735 197 452Z" fill="#5F441C"/>
<ellipse cx="384.85" cy="791.706" rx="3.24168" ry="79.1091" transform="rotate(23.7677 384.85 791.706)" fill="#585858"/>
<path d="M296 862L291.5 871L306 876.5L319 880.5L331.5 884L344 887.5L356.5 890V889L296 862Z" fill="black" stroke="black"/>
<defs>
<filter id="filter0_i_70_13" x="63.3711" y="379.656" width="760.094" height="103.391" filterUnits="userSpaceOnUse" color-interpolation-filters="sRGB">
<feFlood flood-opacity="0" result="BackgroundImageFix"/>
<feBlend mode="normal" in="SourceGraphic" in2="BackgroundImageFix" result="shape"/>
<feColorMatrix in="SourceAlpha" type="matrix" values="0 0 0 0 0 0 0 0 0 0 0 0 0 0 0 0 0 0 127 0" result="hardAlpha"/>
<feOffset dy="4"/>
<feGaussianBlur stdDeviation="2"/>
<feComposite in2="hardAlpha" operator="arithmetic" k2="-1" k3="1"/>
<feColorMatrix type="matrix" values="0 0 0 0 0 0 0 0 0 0 0 0 0 0 0 0 0 0 0.25 0"/>
<feBlend mode="normal" in2="shape" result="effect1_innerShadow_70_13"/>
</filter>
</defs>
</svg>
